<svg fill="none" height="55" viewBox="0 0 201 55" width="201" xmlns="http://www.w3.org/2000/svg" xmlns:xlink="http://www.w3.org/1999/xlink"><clipPath id="a"><path d="m0 0h201v55h-201z"/></clipPath><g clip-path="url(#a)" fill="#faf9f8"><path d="m71.9519 22.8369c-1.3524 0-2.3995.51-3.1413 1.5301-.7419 1.0123-1.1128 2.4265-1.1128 4.2425 0 3.7789 1.418 5.6684 4.2541 5.6684 1.1901 0 2.6313-.2975 4.3237-.8926v3.0139c-1.391.5795-2.9443.8693-4.6598.8693-2.4652 0-4.3508-.7457-5.6568-2.2372-1.306-1.4992-1.959-3.6475-1.959-6.445 0-1.7619.3207-3.3036.9621-4.625.6414-1.3292 1.561-2.3454 2.7588-3.0487 1.2056-.7109 2.6159-1.0664 4.231-1.0664 1.646 0 3.2998.398 4.9613 1.1939l-1.1592 2.9212c-.6337-.3014-1.2712-.5642-1.9126-.7883s-1.2713-.3361-1.8895-.3361z"/><path d="m82.4308 30.5338c0 1.2828.2087 2.2526.626 2.9095.425.6568 1.1128.9853 2.0633.9853.9428 0 1.619-.3246 2.0285-.9737.4173-.6569.626-1.6306.626-2.9211 0-1.2829-.2087-2.245-.626-2.8864s-1.1012-.9621-2.0517-.9621c-.9428 0-1.6228.3207-2.0401.9621-.4173.6337-.626 1.5958-.626 2.8864zm8.9604 0c0 2.1096-.5564 3.7595-1.6692 4.9496s-2.6622 1.7851-4.6483 1.7851c-1.2441 0-2.3415-.2704-3.292-.8114-.9505-.5487-1.6808-1.333-2.1909-2.3531-.51-1.0201-.765-2.2102-.765-3.5702 0-2.1175.5525-3.7635 1.6576-4.9381s2.6584-1.762 4.6599-1.762c1.2442 0 2.3415.2705 3.292.8115.9505.5409 1.6808 1.3176 2.1909 2.3299.51 1.0123.765 2.1986.765 3.5587z"/><path d="m98.4158 37.2685c-1.5224 0-2.7202-.5911-3.5934-1.7735-.8656-1.1824-1.2983-2.8206-1.2983-4.9149 0-2.1251.4405-3.7789 1.3214-4.9612.8887-1.1901 2.1097-1.7852 3.663-1.7852 1.6305 0 2.8745.6337 3.7325 1.9011h.116c-.178-.966-.267-1.8276-.267-2.585v-4.1498h3.547v18.0367h-2.712l-.684-1.6808h-.151c-.803 1.2751-2.028 1.9126-3.6742 1.9126zm1.2403-2.8167c.9039 0 1.5649-.2628 1.9819-.7883.425-.5255.657-1.418.696-2.6777v-.3825c0-1.391-.217-2.3879-.649-2.9907-.425-.6027-1.121-.9041-2.0869-.9041-.7882 0-1.4026.3361-1.843 1.0085-.4328.6646-.6492 1.6344-.6492 2.9095s.2203 2.2333.6607 2.8747c.4405.6337 1.0703.9506 1.8895.9506z"/><path d="m114.702 26.3491c-.749 0-1.337.2396-1.762.7187-.425.4714-.668 1.1437-.73 2.017h4.961c-.015-.8733-.243-1.5456-.684-2.017-.44-.4791-1.035-.7187-1.785-.7187zm.499 10.9194c-2.087 0-3.717-.5757-4.892-1.7271-1.175-1.1515-1.762-2.782-1.762-4.8917 0-2.1715.541-3.8485 1.623-5.0308 1.089-1.1901 2.592-1.7852 4.509-1.7852 1.831 0 3.257.5217 4.277 1.5649 1.02 1.0433 1.53 2.4845 1.53 4.3237v1.7156h-8.357c.038 1.0046.336 1.789.892 2.3531.557.5642 1.337.8462 2.342.8462.78 0 1.518-.0811 2.214-.2434.695-.1623 1.422-.4212 2.179-.7767v2.7357c-.618.3091-1.279.5371-1.982.6839-.703.1546-1.561.2318-2.573.2318z"/><path d="m135.324 37.0367h-3.536v-7.5694c0-.935-.166-1.6344-.498-2.0981-.332-.4714-.862-.7071-1.588-.7071-.989 0-1.704.3323-2.145.9969-.44.6569-.66 1.7504-.66 3.2805v6.0972h-3.536v-12.9595h2.701l.475 1.6576h.197c.394-.626.935-1.0974 1.623-1.4142.696-.3246 1.484-.4869 2.365-.4869 1.507 0 2.651.4096 3.431 1.2288.781.8114 1.171 1.986 1.171 3.5238z"/><path d="m141.78 30.5338c0 1.2828.209 2.2526.626 2.9095.425.6568 1.113.9853 2.064.9853.942 0 1.619-.3246 2.028-.9737.418-.6569.626-1.6306.626-2.9211 0-1.2829-.208-2.245-.626-2.8864-.417-.6414-1.101-.9621-2.052-.9621-.942 0-1.622.3207-2.04.9621-.417.6337-.626 1.5958-.626 2.8864zm8.961 0c0 2.1096-.557 3.7595-1.669 4.9496-1.113 1.1901-2.663 1.7851-4.649 1.7851-1.244 0-2.341-.2704-3.292-.8114-.95-.5487-1.681-1.333-2.191-2.3531s-.765-2.2102-.765-3.5702c0-2.1175.553-3.7635 1.658-4.9381s2.658-1.762 4.66-1.762c1.244 0 2.341.2705 3.292.8115.95.5409 1.681 1.3176 2.191 2.3299s.765 2.1986.765 3.5587z"/><path d="m159.122 34.4518c.618 0 1.36-.1353 2.225-.4058v2.6314c-.881.3941-1.963.5911-3.246.5911-1.414 0-2.445-.3554-3.094-1.0664-.642-.7187-.963-1.7929-.963-3.2225v-6.2479h-1.692v-1.4954l1.947-1.1823 1.02-2.7357h2.261v2.7589h3.628v2.6545h-3.628v6.2479c0 .5023.139.8732.417 1.1128.286.2396.661.3594 1.125.3594z"/><path d="m172.209 37.0367-.684-1.7619h-.093c-.595.7496-1.209 1.2712-1.843 1.5648-.626.286-1.445.4289-2.458.4289-1.244 0-2.225-.3554-2.944-1.0664-.711-.711-1.066-1.7233-1.066-3.037 0-1.3756.479-2.3879 1.437-3.0371.966-.6568 2.419-1.02 4.359-1.0896l2.248-.0695v-.568c0-1.3137-.672-1.9706-2.017-1.9706-1.035 0-2.252.313-3.651.9389l-1.171-2.3879c1.492-.7805 3.145-1.1707 4.961-1.1707 1.739 0 3.072.3786 4 1.1359.927.7574 1.391 1.9088 1.391 3.4544v8.6358zm-1.044-6.0045-1.367.0464c-1.028.0309-1.793.2163-2.296.5564-.502.34-.753.8578-.753 1.5533 0 .9968.572 1.4953 1.715 1.4953.82 0 1.473-.2357 1.959-.7071.495-.4714.742-1.0974.742-1.8779z"/><path d="m185.562 23.8337c.479 0 .877.0348 1.194.1044l-.266 3.3152c-.286-.0773-.634-.1159-1.044-.1159-1.128 0-2.009.2898-2.643.8694-.626.5795-.939 1.391-.939 2.4342v6.5957h-3.535v-12.9595h2.678l.521 2.1792h.174c.402-.7264.943-1.3099 1.623-1.7503.688-.4482 1.434-.6724 2.237-.6724z"/><path d="m187.255 24.0772h3.871l2.446 7.2912c.209.6336.352 1.3832.429 2.2487h.07c.085-.7959.251-1.5455.498-2.2487l2.399-7.2912h3.791l-5.483 14.6171c-.502 1.3524-1.221 2.3647-2.156 3.037-.927.6724-2.013 1.0085-3.257 1.0085-.611 0-1.21-.0657-1.797-.197v-2.8052c.425.1004.889.1507 1.391.1507.626 0 1.171-.1932 1.634-.5796.472-.3787.839-.9544 1.102-1.7272l.208-.6375z"/><path d="m27.8432.739746c-14.9602 0-27.103576 12.143354-27.103576 27.103654 0 14.9602 12.143376 27.1036 27.103576 27.1036 14.9603-.0237 27.08-12.1434 27.1037-27.1036 0-14.9603-12.1434-27.103654-27.1037-27.103654zm0 1.183564c14.2975.02367 25.8964 11.62259 25.9201 25.92009 0 14.3211-11.5989 25.92-25.9201 25.92-14.3211 0-25.92001-11.5989-25.92001-25.92 0-14.3212 11.59891-25.92009 25.92001-25.92009z"/><path d="m27.8433 51.9644c-1.3966 0-2.7932-.1184-4.1898-.3551-.2131-.0237-.4025-.1657-.4735-.3787-.071-.2131-.0473-.4261.0947-.5918s.3551-.2367.5681-.1894c2.6275.4498 5.3261.4498 7.9772 0 .3314-.0473.6392.1657.6865.4734.0474.3314-.1657.6392-.4734.6865-1.3729.2367-2.7932.3551-4.1898.3551zm-11.7647-3.1246c-.0946 0-.213-.0237-.284-.0711-2.4381-1.4202-4.5922-3.2429-6.41492-5.397-.21304-.2604-.18937-.6155.07101-.8285s.61541-.1894.82851.071c1.728 2.0594 3.7874 3.7874 6.0835 5.113.2367.142.3314.4024.2841.6628-.0474.2604-.2841.4498-.5682.4498zm23.553 0c-.2604 0-.4971-.1894-.5682-.4261-.071-.2367.0474-.5445.2841-.6628 2.3198-1.3493 4.3792-3.0773 6.1072-5.113.142-.1657.3551-.2604.5681-.213.213.0473.3787.1893.4734.3787.071.213.0237.4261-.1183.5918-1.799 2.1541-3.9768 3.9767-6.4149 5.3733-.1421.0237-.2368.0474-.3314.0711zm-33.8973-12.3091c-.26038 0-.47342-.1657-.56811-.4024-.97052-2.6512-1.46762-5.4444-1.44395-8.2613 0-.1657.07102-.3077.1657-.4261.11836-.1183.26039-.1657.42608-.1657.3314 0 .59179.2604.59179.5918 0 2.6749.47342 5.326 1.3966 7.8352.11836.3077-.04734.6391-.35507.7575-.09468.0473-.14202.0473-.21304.071zm44.2416-.0237c-.071 0-.142 0-.213-.0236-.1421-.0474-.2604-.1657-.3314-.3078-.071-.142-.071-.3077-.0237-.4497.9232-2.5092 1.3729-5.184 1.3729-7.8589v-.0473c0-.3314.2604-.5918.5918-.5918s.5918.2604.5918.5918v.0473c0 2.8169-.4971 5.6101-1.444 8.2613-.071.213-.3077.3551-.5444.3787zm-44.26527-16.0965c-.18937 0-.37874-.0946-.4971-.2603-.11835-.1657-.14202-.3551-.07101-.5445.97052-2.6512 2.36713-5.113 4.18981-7.2671.21305-.2603.59179-.284.82847-.071.2367.2131.2841.5918.071.8285-1.72796 2.0594-3.07722 4.3792-3.97673 6.912-.07101.2368-.28406.4024-.54444.4024zm44.24157-.071c-.2603 0-.4734-.1657-.5681-.3787-.9232-2.5092-2.2724-4.8526-4.0004-6.8883-.142-.1657-.1657-.3788-.0947-.5918.071-.1894.2367-.3551.4498-.3788.213-.0236.426.0474.5681.2131 1.8227 2.1541 3.2429 4.5922 4.2134 7.2434.1184.3077-.0473.6391-.355.7575-.071 0-.142.0236-.2131.0236zm-33.8972-12.28536c-.2604 0-.4971-.18937-.5681-.44976-.071-.26038.0473-.52076.284-.66279 2.4382-1.42028 5.0893-2.3908 7.8589-2.8879.213-.04734.4261.04734.5681.21304s.1657.37874.0947.59178c-.071.21305-.2367.35507-.4498.37875-2.6275.47342-5.1603 1.3966-7.4801 2.74586-.1184.04735-.213.07102-.3077.07102zm23.5292-.02367c-.0947 0-.213-.02367-.284-.07102-2.3198-1.32559-4.8526-2.24877-7.5038-2.72219-.3078-.07102-.4971-.37875-.4498-.68647.0474-.30773.3551-.52077.6628-.47343 2.7696.47343 5.4444 1.44395 7.8825 2.84056.2368.14202.3551.40241.2841.66279-.0947.26039-.3314.42609-.5918.44976z"/><path d="m27.8432 48.84c-11.5989 0-20.9964-9.3975-20.9964-20.9964s9.3975-20.99643 20.9964-20.99643c11.599 0 20.9965 9.39753 20.9965 20.99643-.0237 11.5753-9.4212 20.9728-20.9965 20.9964zm0-40.80927c-10.9361 0-19.81283 8.87677-19.81283 19.81287s8.87673 19.8129 19.81283 19.8129c10.9362 0 19.8129-8.8768 19.8129-19.8129-.0236-10.9361-8.8767-19.7892-19.8129-19.81287z"/><path d="m26.7307 33.7611c-.0474 0-.0947 0-.142-.0237-2.1541-.5681-3.8585-2.2014-4.5449-4.3082-.6865-2.1067-.2604-4.4265 1.1599-6.1545v-.0237c.142-.1657.284-.3314.426-.4734l5.2787-5.2787c1.657-1.657 4.0715-2.2961 6.3203-1.7043 2.2724.6154 4.0241 2.3671 4.6396 4.6395.6154 2.2725-.0474 4.6869-1.7044 6.3203l-5.2787 5.2787c-.1657.1657-.3314.3077-.4971.4497-.2367.1894-.5681.1657-.7811-.0473-.2131-.2131-.2367-.5445-.0474-.7812 1.0889-1.3492 1.4676-3.1246 1.0179-4.7816-.0473-.213 0-.4261.142-.5681l2.4855-2.4855c.8995-.9468.8758-2.4144-.0473-3.3376-.9232-.9232-2.4145-.9469-3.3377-.0474l-5.2787 5.2787c-.1183.1184-.213.2367-.3077.3788-.6155.9468-.4971 2.2014.3077 3.0062s2.0594.9232 3.0063.3077c.2367-.142.5444-.1183.7338.0711.1894.1893.2367.4971.071.7338-.142.213-.2841.4024-.4498.5681l-2.7932 2.7932c-.071.142-.2367.1894-.3787.1894zm-2.6275-9.7289c-1.1126 1.3729-1.4676 3.1956-.9705 4.8762.497 1.6807 1.7753 3.03 3.4323 3.5981l1.515-1.515c-1.2783-.071-2.4145-.8048-3.0063-1.941-.5681-1.1362-.4971-2.5092.213-3.5744.1421-.213.2841-.4024.4498-.5681l5.2787-5.255c1.3966-1.3966 3.669-1.3966 5.0656 0 1.3967 1.3966 1.3967 3.669 0 5.0656l-2.2487 2.2488c.0947.4498.142.8995.142 1.3729 0 .3788-.0237.7575-.0947 1.1363l3.4797-3.456c2.1067-2.1068 2.1067-5.5155 0-7.5985-2.1067-2.1068-5.5154-2.1068-7.5985 0l-5.2787 5.2787c-.142.0473-.2604.1657-.3787.3314z"/><path d="m28.2694 30.9918c-1.3256 0-2.5328-.7101-3.1483-1.87-.6154-1.1599-.5681-2.5565.1657-3.6691.0473-.071.0947-.1183.1657-.1657 1.0889-.7101 2.5091-.7811 3.669-.1657 1.1599.6155 1.8701 1.8227 1.8701 3.1483 0 .6865-.2131 1.3729-.5918 1.9647-.0474.071-.0947.1184-.1657.1657-.5918.3788-1.2546.5918-1.9647.5918zm-2.0594-4.7816c-.5445.9469-.4024 2.1304.3787 2.8879.7575.7575 1.9647.9232 2.8879.3787.213-.3787.3314-.7811.3314-1.2072 0-.8522-.4498-1.657-1.2072-2.0831-.7575-.426-1.657-.4024-2.3908.0237z"/><path d="m33.1692 27.3224c-.0473 0-.0946 0-.142-.0237-.213-.0473-.355-.213-.4261-.4261-.4971-1.8463-1.941-3.2903-3.7874-3.7874-.213-.0473-.355-.213-.4024-.426-.0473-.2131 0-.4261.1657-.5682l2.4618-2.4854c1.3966-1.3966 3.6691-1.3966 5.0657 0s1.3966 3.669 0 5.0656l-2.4855 2.4618c-.142.1184-.2841.1894-.4498.1894zm-3.1246-5.0657c1.515.6628 2.7222 1.8701 3.385 3.385l1.799-1.8226c.6155-.5918.8759-1.4913.6628-2.3198-.213-.8285-.8758-1.4913-1.7043-1.7044-.8285-.213-1.728.0237-2.3198.6628z"/><path d="m28.2694 30.9918c-1.3256 0-2.5328-.7101-3.1483-1.87-.6154-1.1599-.5681-2.5565.1657-3.6691.0473-.071.0947-.1183.1657-.1657 1.0889-.7101 2.5091-.7811 3.669-.1657 1.1599.6155 1.8701 1.8227 1.8701 3.1483 0 .6865-.2131 1.3729-.5918 1.9647-.0474.071-.0947.1184-.1657.1657-.5918.3788-1.2546.5918-1.9647.5918zm-2.0594-4.7816c-.5445.9469-.4024 2.1304.3787 2.8879.7575.7575 1.9647.9232 2.8879.3787.213-.3787.3314-.7811.3314-1.2072 0-.8522-.4498-1.657-1.2072-2.0831-.7575-.426-1.657-.4024-2.3908.0237z"/><path d="m33.1692 27.3224c-.0473 0-.0946 0-.142-.0237-.213-.0473-.355-.213-.4261-.4261-.4971-1.8463-1.941-3.2903-3.7874-3.7874-.213-.0473-.355-.213-.4024-.426-.0473-.2131 0-.4261.1657-.5682l2.4618-2.4854c1.3966-1.3966 3.6691-1.3966 5.0657 0s1.3966 3.669 0 5.0656l-2.4855 2.4618c-.142.1184-.2841.1894-.4498.1894zm-3.1246-5.0657c1.515.6628 2.7222 1.8701 3.385 3.385l1.799-1.8226c.6155-.5918.8759-1.4913.6628-2.3198-.213-.8285-.8758-1.4913-1.7043-1.7044-.8285-.213-1.728.0237-2.3198.6628z"/><path d="m22.1386 40.1053c-2.6512 0-5.042-1.586-6.0599-4.0478-1.0178-2.4382-.4497-5.2787 1.4203-7.1487l5.2787-5.2787c.1657-.1657.3314-.3078.4971-.4498.2367-.1894.5681-.1657.7812.0474.213.213.2367.5444.0473.7811-1.0889 1.3493-1.4676 3.1246-1.0179 4.7816.0474.213 0 .4261-.142.5681l-2.4855 2.4855c-.8995.9469-.8758 2.4145.0474 3.3377.9232.9231 2.4144.9468 3.3376.0473l5.2787-5.255c.1184-.1184.2131-.2367.3077-.3788.2604-.4024.3788-.8521.4025-1.3256 0-.8758-.4971-1.6806-1.2546-2.1067-.7812-.4261-1.7043-.3787-2.4382.0947-.2367.142-.5444.1183-.7338-.071-.1893-.1894-.2367-.4971-.071-.7338.142-.2131.2841-.4025.4498-.5682l2.7695-2.7932c.142-.142.3551-.213.5681-.1657 2.1541.5681 3.8584 2.2015 4.5449 4.3082.6865 2.1068.2604 4.4265-1.1599 6.1545v.0237c-.142.1657-.284.3314-.4261.4734l-5.3023 5.2787c-1.2309 1.2546-2.8879 1.9411-4.6396 1.9411zm-.3077-13.824-3.4797 3.456c-2.0594 2.1067-2.0357 5.468.0473 7.5511 2.0831 2.0831 5.4444 2.1067 7.5512.0473l5.2787-5.2787c.1183-.1183.2367-.2603.355-.4024l.0237-.0236c1.1126-1.373 1.4676-3.1957.9705-4.8763-.4971-1.6807-1.7753-3.0299-3.4323-3.5981l-1.515 1.5387c1.2783.071 2.4145.8048 3.0063 1.941.5681 1.1362.4971 2.5092-.2131 3.5744-.142.213-.284.4024-.4497.5681l-5.2787 5.2787c-1.3966 1.3966-3.6691 1.3966-5.0657 0s-1.3966-3.6691 0-5.0657l2.2488-2.2487c-.1894-.7812-.213-1.6334-.0473-2.4618z"/><path d="m28.2694 30.9918c-1.3256 0-2.5328-.7101-3.1483-1.87-.6154-1.1599-.5681-2.5565.1657-3.6691.0473-.071.0947-.1183.1657-.1657 1.4203-.9231 3.2903-.7338 4.4975.4735 1.2072 1.2072 1.3966 3.0772.4734 4.4975-.0473.071-.0947.1184-.1657.1657-.6154.3551-1.2782.5681-1.9883.5681zm-2.0594-4.7816c-.5445.9469-.4024 2.1304.3787 2.8879.7575.7575 1.9647.9232 2.8879.3788.213-.3788.3314-.7812.3314-1.2073 0-.8521-.4734-1.6333-1.2072-2.0594s-1.657-.4261-2.3908 0z"/><path d="m22.1384 37.1224c-1.4439 0-2.7459-.8759-3.2903-2.2015s-.2367-2.8642.7812-3.9057l2.4618-2.4618c.142-.1421.3787-.2131.5681-.1657.213.0473.355.213.4261.426.4971 1.8464 1.941 3.2903 3.7874 3.7874.213.0474.355.2131.426.4261.0474.2131 0 .4261-.142.5681l-2.4618 2.4618c-.6865.6865-1.6096 1.0653-2.5565 1.0653zm.1184-7.0778-1.8227 1.7991c-.8995.9468-.8759 2.4144.0473 3.3376s2.4145.9469 3.3377.0474l1.8227-1.7991c-1.515-.6628-2.7222-1.87-3.385-3.385z"/><path d="m28.2694 30.9918c-1.3256 0-2.5328-.7101-3.1483-1.87-.6154-1.1599-.5681-2.5565.1657-3.6691.0473-.071.0947-.1183.1657-.1657 1.4203-.9231 3.2903-.7338 4.4975.4735 1.2072 1.2072 1.3966 3.0772.4734 4.4975-.0473.071-.0947.1184-.1657.1657-.6154.3551-1.2782.5681-1.9883.5681zm-2.0594-4.7816c-.5445.9469-.4024 2.1304.3787 2.8879.7575.7575 1.9647.9232 2.8879.3788.213-.3788.3314-.7812.3314-1.2073 0-.8521-.4734-1.6333-1.2072-2.0594s-1.657-.4261-2.3908 0z"/><path d="m22.1384 37.1224c-1.4439 0-2.7459-.8759-3.2903-2.2015s-.2367-2.8642.7812-3.9057l2.4618-2.4618c.142-.1421.3787-.2131.5681-.1657.213.0473.355.213.4261.426.4971 1.8464 1.941 3.2903 3.7874 3.7874.213.0474.355.2131.426.4261.0474.2131 0 .4261-.142.5681l-2.4618 2.4618c-.6865.6865-1.6096 1.0653-2.5565 1.0653zm.1184-7.0778-1.8227 1.7991c-.8995.9468-.8759 2.4144.0473 3.3376s2.4145.9469 3.3377.0474l1.8227-1.7991c-1.515-.6628-2.7222-1.87-3.385-3.385z"/></g></svg>