<svg width="258" height="246" viewBox="0 0 258 246" fill="none" xmlns="http://www.w3.org/2000/svg">
<path d="M85.5902 77.4214C85.4374 77.4825 85.2847 77.5436 85.132 77.6047C85.3458 78.1443 86.2927 77.2381 86.9341 78.8468C87.1276 78.7654 87.3312 78.6737 87.5247 78.5923C87.6774 78.521 87.8301 78.4599 87.9828 78.3886C87.993 78.3886 87.993 78.3785 88.0032 78.3785C88.4308 78.185 88.8585 77.9916 89.2759 77.7981C95.5783 78.7857 100.608 81.606 104.09 85.4852C100.506 83.2453 94.7332 79.3661 84.9385 79.3253C73.7999 79.3763 69.2283 81.4024 59.5762 85.1798C53.5894 90.5251 47.0019 94.2007 43.4485 101.043C39.386 108.842 46.839 128.635 59.5252 126.833C60.6045 126.67 61.7652 126.324 62.1521 126.161C63.7201 125.56 78.6056 118.036 85.3051 118.036C86.0993 118.718 89.3981 120.347 93.4198 119.94C98.2663 119.451 102.349 116.386 105.526 112.67C101.056 118.85 94.8452 122.74 87.433 120.948C86.2214 120.642 85.2644 120.255 84.7247 119.981C80.8048 120.143 72.2319 123.676 68.872 125.234C68.8618 125.234 68.8618 125.244 68.8516 125.244C68.7294 125.295 68.5156 125.397 68.2509 125.509C68.2203 125.519 68.1898 125.54 68.1592 125.55C68.088 125.58 68.0167 125.611 67.9353 125.652C67.864 125.682 67.7927 125.713 67.7214 125.754C67.2429 125.967 66.8153 126.161 66.4284 126.344C66.4182 126.354 66.408 126.354 66.3978 126.364C66.3775 126.375 66.3673 126.385 66.3469 126.385C66.3367 126.385 66.3266 126.395 66.3266 126.395C63.5775 127.668 63.099 128.004 61.3376 128.452C61.0627 128.523 60.7878 128.584 60.5129 128.635C60.462 128.645 60.411 128.655 60.3601 128.665C60.2889 128.676 60.2074 128.696 60.1361 128.706C60.0751 128.716 60.014 128.727 59.9427 128.737C59.8714 128.747 59.8001 128.757 59.7289 128.767C46.3401 130.671 38.0319 111.886 40.9743 101.929C40.9845 101.908 40.9845 101.888 40.9947 101.867C41.066 101.643 41.1882 101.318 41.2798 101.083C41.29 101.073 41.29 101.053 41.3002 101.043C41.3103 101.022 41.3103 101.012 41.3205 100.992C41.3205 100.992 41.3205 100.992 41.3205 100.982C41.3511 100.921 41.3714 100.859 41.402 100.798C41.402 100.788 41.4122 100.788 41.4122 100.778C41.5242 100.544 41.6362 100.32 41.7583 100.086C41.7991 100.014 41.8398 99.9431 41.8703 99.8719C42.0332 99.5664 42.2063 99.2813 42.3692 98.9962C42.3692 98.9962 42.359 98.9962 42.359 99.0064C46.3604 92.2458 53.3755 88.2852 58.5173 83.5304C67.9149 79.3661 74.8893 76.8207 85.5902 77.4214Z" fill="#19243B"/>
<path d="M85.1421 77.6051C85.2948 77.5441 85.4475 77.483 85.6003 77.4219C85.865 77.4321 86.1297 77.4524 86.3944 77.4728L86.9442 78.8473C86.2926 77.2284 85.3559 78.1448 85.1421 77.6051Z" fill="#19243B"/>
<path d="M108.773 64.3594C108.529 65.0212 108.305 65.7033 108.112 66.3855C108 65.8968 107.898 65.4081 107.806 64.9194C107.827 64.9092 108.773 64.3797 108.773 64.3797C108.773 64.3696 108.773 64.3696 108.773 64.3594Z" fill="#19243B"/>
<path d="M108.886 64.084C108.855 64.1756 108.814 64.2672 108.784 64.3589C108.814 64.2672 108.845 64.1756 108.886 64.084Z" fill="#2854A1"/>
<path d="M109.669 65.8747C109.649 65.7729 109.629 65.6609 109.608 65.5488C109.629 65.6507 109.649 65.7627 109.669 65.8747Z" fill="#19243B"/>
<path d="M247.396 111.05H247.386C244.871 110.867 242.285 111.478 239.679 113.036C233.539 113.748 231.523 121.731 234.791 126.608C233.987 126.954 233.172 127.463 232.439 128.135C230.413 126.954 228.01 126.486 225.73 126.649C220.914 126.313 216.078 128.797 215.752 133.277C215.385 138.266 221.036 141.738 226.514 141.341C228.133 141.218 229.741 140.76 231.177 139.905C231.279 140.139 231.391 140.373 231.503 140.597C232.185 141.992 233.04 143.224 233.977 144.1C231.696 144.782 229.415 145.138 227.186 145.21C210.956 145.739 197.415 131.098 202.831 116.05C204.491 111.427 207.81 107.517 212.158 104.86C215.477 102.834 218.277 102.172 219.804 101.755C220.619 93.5481 220.517 94.047 220.72 93.9045L227.644 88.9867C229.507 87.6631 229.823 84.9854 228.316 83.2647L222.451 76.555C222.299 76.3819 222.319 76.6873 222.859 71.2605C222.879 71.0365 222.563 71.3522 228.357 66.7603C229.833 65.5894 230.261 63.5225 229.354 61.8629L225.19 54.1656C225.109 54.0129 225.139 53.8296 225.261 53.7176L233.498 45.9897C233.661 45.837 233.916 45.8574 234.048 46.0508C234.211 46.285 234.354 46.4886 234.486 46.6821C236.258 49.2479 235.759 48.5351 237.103 50.4798C236.054 60.9364 232.653 94.8615 232.144 99.9625C232.083 100.584 232.531 101.133 233.142 101.195L233.855 101.266C234.109 101.286 234.343 101.235 234.547 101.113C234.832 100.94 235.036 100.635 235.076 100.268C235.555 95.503 238.681 64.2658 239.689 54.2267C239.933 54.5728 240.3 55.1227 240.961 56.0594C240.9 56.6499 237.408 91.4812 236.461 100.971C236.319 102.376 236.237 103.231 236.227 103.322L237.306 103.852C240.829 105.573 243.812 108.026 246.062 111.01C246.51 110.999 246.958 111.01 247.396 111.05Z" fill="white"/>
<path d="M247.396 111.05H247.386C245.421 111.193 243.415 111.834 241.41 113.036C235.27 113.748 233.254 121.731 236.522 126.608C235.077 127.239 233.57 128.379 232.602 130.09C232.857 129.632 232.277 130.467 232.602 130.09C232.266 129.835 232.959 130.304 232.602 130.09C230.576 128.909 228.011 126.475 225.73 126.638C221.545 126.934 217.768 129.326 217.483 133.267C217.157 137.726 221.647 140.984 226.524 141.33C228.194 141.453 229.914 141.229 231.503 140.597C232.185 141.992 233.04 143.224 233.977 144.1C231.696 144.782 229.416 145.138 227.186 145.21C211.74 144.69 199.329 130.558 204.552 116.05C206.212 111.427 209.531 107.517 213.878 104.86C217.198 102.834 219.998 102.172 221.525 101.755C222.339 93.5481 222.238 94.047 222.441 93.9045L229.365 88.9867C231.228 87.6631 231.544 84.9854 230.037 83.2647L224.172 76.555C224.019 76.3819 224.04 76.6873 224.579 71.2605C224.6 71.0365 224.284 71.3522 230.077 66.7603C231.554 65.5894 231.981 63.5225 231.075 61.8629L226.911 54.1656C226.829 54.0129 226.86 53.8296 226.982 53.7176L234.486 46.6821L235.219 45.9897C235.382 45.837 235.637 45.8574 235.769 46.0508C238.06 49.37 241.277 53.5038 242.723 55.6012C241.674 66.0577 237.805 98.6593 237.286 103.76C237.235 104.259 242.224 106.041 246.042 111.02C246.511 110.999 246.958 111.01 247.396 111.05Z" fill="url(#paint0_linear)"/>
<path d="M232.521 105.461C222.92 104.035 215.324 107.416 210.926 112.995C207.342 117.567 205.143 125.325 207.79 130.477L207.698 130.528C212.87 130.528 219 127.351 223.123 122.037C228.133 115.592 229.853 112.069 232.541 105.349L232.521 105.461Z" fill="url(#paint1_linear)"/>
<path opacity="0.6" d="M232.521 105.46C222.92 104.035 215.324 107.415 210.926 112.995C207.342 117.566 205.143 125.325 207.79 130.477L207.698 130.527C204.511 125.874 205.998 117.607 210.121 112.302C215.131 105.857 223.887 103.058 232.541 105.359L232.521 105.46Z" fill="#2854A1"/>
<path d="M44.3954 141.25C45.4034 139.967 46.3299 138.928 47.2565 137.992C50.3313 149.66 51.5124 159.108 52.2251 170.756C43.4587 184.929 30.1615 200.089 18.5545 211.961C25.3965 183.951 23.9915 158.721 2.36572 139.651C5.56275 129.246 9.92048 110.97 13.6979 95.0354C17.3836 79.4881 16.8032 82.4815 16.8949 80.3535C16.9254 80.4655 16.9458 80.5673 16.956 80.6488C16.9967 80.944 16.9865 80.883 17.3938 81.3106C23.8082 88.1323 29.5914 96.6034 34.112 104.82C30.3855 108.536 27.4939 113.281 26.1703 118.504C26.1703 125.733 31.0168 131.19 31.0677 136.526C30.355 141.626 29.5303 142.879 29.7135 148.855C30.1106 149.426 30.2735 149.599 30.6299 149.955C32.7069 151.9 35.8632 151.981 38.0115 150.21C39.4675 148.998 40.0886 146.768 44.3954 141.25Z" fill="white"/>
<path d="M52.225 170.756C51.5123 159.098 50.3313 149.66 47.2564 137.992C46.3299 138.929 45.4034 139.967 44.3954 141.25C40.0885 146.769 39.4675 148.988 38.0013 150.22C35.853 151.992 32.6967 151.91 30.6196 149.966C30.2531 149.609 30.1004 149.436 29.7033 148.866C29.52 142.889 30.3447 141.637 31.0574 136.536C31.0065 131.211 26.1703 125.744 26.1703 118.515C27.4939 113.291 30.2836 109.361 34.0101 105.645C29.4895 97.4284 22.9325 89.0693 17.5973 82.8789C17.5057 85.0069 6.92701 128.635 3.72998 139.041C25.3456 158.121 25.3965 183.952 18.5544 211.972C30.1615 200.1 43.4587 184.939 52.225 170.756Z" fill="url(#paint2_linear)" stroke="black" stroke-miterlimit="10"/>
<path d="M21.782 94.4863C17.8316 110.869 12.6084 127.414 8.34229 139.051" stroke="#2854A1" stroke-width="2" stroke-miterlimit="10" stroke-linecap="round"/>
<path d="M28.0948 104.83C23.7676 119.349 18.9211 131.231 13.7285 146.615" stroke="#2854A1" stroke-width="2" stroke-miterlimit="10" stroke-linecap="round"/>
<path d="M38.2663 127.535C34.102 137.208 27.1683 152.847 21.7822 160.452" stroke="#2854A1" stroke-width="2" stroke-miterlimit="10" stroke-linecap="round"/>
<path d="M33.7965 116.539C29.6322 126.212 23.4316 142.665 17.9233 152.847" stroke="#2854A1" stroke-width="2" stroke-miterlimit="10" stroke-linecap="round"/>
<path d="M42.3794 138.562C38.1031 148.286 29.2757 161.166 24.3274 169.484" stroke="#2854A1" stroke-width="2" stroke-miterlimit="10" stroke-linecap="round"/>
<path d="M46.0244 148.693C37.7773 162.327 32.4727 172.019 24.979 183.301" stroke="#2854A1" stroke-width="2" stroke-miterlimit="10" stroke-linecap="round"/>
<path d="M46.1262 164.74C39.4471 176.378 33.3585 185.979 24.979 194.369" stroke="#2854A1" stroke-width="2" stroke-miterlimit="10" stroke-linecap="round"/>
<path d="M28.1148 179.157C27.0763 179.157 25.9665 178.373 25.8443 176.622C25.3963 170.34 24.2051 164.19 22.3215 158.346C21.9041 157.053 22.0568 155.424 22.6779 154.385C22.7288 154.293 22.7899 154.202 22.8408 154.11C22.1993 152.43 21.4968 150.771 20.7433 149.162L20.7332 149.131C17.7398 142.432 16.4263 133.747 17.5361 127.994C18.259 124.227 20.4175 121.967 23.3193 121.967C25.04 121.967 27.7177 122.812 30.7213 126.823L30.7417 126.844C31.5664 127.984 32.3707 129.165 33.1446 130.356C33.4398 130.224 33.7351 130.163 33.9998 130.163C34.4987 130.163 35.4558 130.346 36.2296 131.609C39.956 137.718 43.0004 144.336 45.2912 151.269C45.7596 152.664 45.6781 154.538 45.1079 155.709C41.0964 164.068 35.975 171.663 29.9068 178.281C29.2552 179.004 28.573 179.157 28.1148 179.157ZM25.0094 145.344C25.4167 146.179 25.824 147.014 26.2109 147.869C27.9214 144.295 29.3875 140.558 30.5686 136.7C29.5504 134.959 28.4712 133.248 27.341 131.609C26.0378 129.756 24.8873 129.094 24.2458 129.094C23.5535 129.094 23.0749 130.132 22.8509 131.11C21.9753 134.857 22.912 140.976 25.0094 145.344Z" fill="#D8D8D7"/>
<path d="M33.5113 132.464C33.4094 132.881 33.3076 133.299 33.1956 133.706C31.9738 131.68 30.6808 129.735 29.3266 127.862C24.7856 121.783 20.3057 122.74 19.2366 128.32C18.1472 133.961 19.5624 142.279 22.3115 148.419C23.1973 150.302 24.0118 152.257 24.7551 154.263C24.5616 154.599 24.358 154.935 24.1543 155.261C23.7878 155.872 23.7064 156.992 23.9609 157.796C25.8343 163.599 27.0867 169.871 27.5652 176.479C27.6263 177.396 28.0946 177.681 28.6241 177.111C34.4174 170.798 39.5082 163.355 43.5402 154.945C43.9067 154.181 43.9576 152.756 43.6318 151.799C41.3307 144.835 38.317 138.369 34.7331 132.494C34.2545 131.71 33.6945 131.7 33.5113 132.464ZM36.4537 158.855C35.7716 160.046 35.069 161.217 34.3461 162.357C33.9287 160.097 33.4298 157.888 32.8596 155.719C32.4422 155.688 32.0349 155.23 31.7498 154.395C31.2509 152.919 31.2815 150.811 31.8415 149.62C32.4015 148.429 33.328 148.612 33.9083 150.099C34.2342 150.933 34.3563 152.013 34.2952 152.99C35.069 154.894 35.7919 156.849 36.4537 158.855ZM32.432 136.486C30.7826 142.035 28.6241 147.217 26.0583 151.962C25.2641 149.946 24.3885 147.991 23.4518 146.097C21.2322 141.475 20.1733 134.979 21.1508 130.723C22.118 126.497 25.5187 126.019 28.7463 130.611C30.0393 132.505 31.2713 134.46 32.432 136.486Z" fill="url(#paint3_linear)"/>
<path d="M50.9622 146.228C51.3593 148.092 51.2473 147.552 51.4611 148.692C50.7484 145.078 49.8321 141.199 48.651 136.668C48.651 136.668 48.651 136.668 48.651 136.658C50.443 135.039 52.0313 134.021 54.0065 132.931C51.7768 134.061 50.0357 135.13 48.2132 136.658C47.9994 136.841 47.7754 137.034 47.5616 137.218C47.5005 137.269 47.4496 137.319 47.3987 137.37C47.3172 137.442 47.2358 137.523 47.1543 137.584C43.6213 140.802 40.9333 144.416 38.113 148.285C36.5043 150.382 33.8062 150.352 32.2688 149.008C32.2586 148.998 32.2382 148.988 32.228 148.967C32.0041 148.764 31.8004 148.529 31.6273 148.275C31.5662 142.532 32.2179 142.247 32.9917 136.739C33.0222 136.525 32.9917 135.395 32.7168 134.082C31.6884 129.154 28.1554 124.358 28.1045 118.769C29.3161 114.044 32.0346 109.615 35.5473 106.143C35.6491 106.042 35.7509 105.94 35.8629 105.838C37.441 104.321 39.1719 102.997 40.9842 101.918C38.0417 111.876 46.3499 130.661 59.7388 128.757C59.9831 132.952 55.8087 137.767 50.9622 146.228Z" fill="url(#paint4_linear)"/>
<path d="M29.3572 117.741C30.3652 122.76 32.9004 127.271 34.5905 132.097C34.1731 133.278 33.776 134.438 33.7353 135.681C33.6029 140.354 32.656 144.152 32.2488 148.998C32.2386 148.988 32.2182 148.978 32.208 148.957C31.984 148.754 31.7804 148.52 31.6073 148.265C31.5462 142.523 32.1978 142.238 32.9716 136.729C33.0022 136.516 32.9717 135.385 32.6967 134.072C31.6684 129.144 28.1354 124.348 28.0845 118.759C29.2961 114.035 32.0146 109.606 35.5272 106.134C35.6291 106.032 35.7309 105.93 35.8429 105.828C32.8495 109.31 30.5382 113.352 29.3572 117.741Z" fill="#089ED6"/>
<path d="M119.851 205.14C107.786 217.878 101.168 233.435 85.3762 240.705C83.5333 241.55 81.5581 242.293 79.4403 242.894C79.2469 242.955 78.2592 243.22 77.7502 243.342C74.2477 244.065 71.5292 242.324 69.89 239.737C69.4929 239.116 69.1569 238.434 68.8922 237.742C66.6726 231.938 69.2994 223.559 71.295 219.914C71.5597 219.415 71.855 218.926 72.5575 218.03C78.2389 210.404 88.7158 205.059 96.4945 200.844C97.3498 201.19 98.2152 201.516 99.0705 201.821C99.1112 201.831 99.1519 201.852 99.1926 201.862C85.7427 208.093 70.3583 216.534 68.9431 230.554C68.9329 230.625 68.9329 230.686 68.9227 230.757C68.8616 231.439 68.8311 232.142 68.8412 232.855C69.0042 216.931 86.6896 208.297 100.435 202.279C100.649 202.351 100.873 202.422 101.086 202.493C107.256 204.428 113.579 205.303 119.851 205.14Z" fill="#2496ED"/>
<path d="M119.851 205.14C107.786 217.877 101.168 233.435 85.3762 240.704C77.9233 243.576 73.087 242.12 71.967 240.633C67.2733 234.432 70.8165 224.302 78.2694 217.348C85.3049 210.791 93.2161 205.567 101.066 202.482C107.257 204.427 113.579 205.303 119.851 205.14Z" fill="url(#paint5_linear)"/>
<path d="M68.9226 230.757C68.8615 231.44 68.8412 232.132 68.8412 232.855C68.8412 235.146 69.2281 237.467 69.9102 239.738C69.5131 239.117 69.1771 238.434 68.9124 237.742C66.6928 231.939 69.3197 223.559 71.3153 219.914C71.58 219.415 71.8753 218.926 72.5778 218.03C78.2592 210.404 88.7361 205.059 96.5148 200.844C97.3701 201.19 98.2355 201.516 99.0908 201.821C84.1238 209.152 70.2768 216.096 68.9531 230.554C68.9328 230.615 68.9226 230.686 68.9226 230.757Z" fill="#75C3FF"/>
<path d="M68.7904 145.405C66.917 134.745 68.6988 126.589 68.6988 125.652C62.2538 138.43 61.9586 157.541 69.3708 173.465C69.9817 172.182 70.6639 170.91 71.4071 169.667C72.6493 167.58 74.0543 165.554 75.5918 163.609C71.7838 157.317 69.7781 151.015 68.7904 145.405ZM156.251 187.241C148.635 190.713 140.724 191.181 132.324 191.405C130.267 191.456 127.263 191.599 123.588 191.415C116.054 191.039 105.638 189.257 94.4888 182.384C92.1165 183.82 89.6729 185.367 87.1784 187.068C86.089 187.811 84.9792 188.575 83.8694 189.379C83.3196 189.776 82.7596 190.183 82.1996 190.591C86.1908 194.022 90.8235 196.893 95.8634 199.062C96.5964 199.377 97.3295 199.673 98.083 199.958C98.9179 200.273 99.7527 200.579 100.608 200.854C100.751 200.905 100.903 200.945 101.046 200.996C101.494 201.139 101.942 201.281 102.4 201.414C108.58 203.216 115.198 204 121.949 203.552C135.215 202.666 148.971 196.985 160.761 184.787C159.264 185.744 157.768 186.549 156.251 187.241Z" fill="url(#paint6_radial)"/>
<path d="M254.015 127.514C250.909 121.069 246.379 116.223 241.155 113.158C241.42 113.311 241.756 113.504 242.184 113.779C248.364 110.653 255.257 115.052 256.082 118.167C256.479 119.43 256.387 120.479 256 121.66C255.338 123.289 254.575 124.623 253.261 126.038C253.526 126.516 253.781 127.005 254.015 127.514Z" fill="url(#paint7_linear)"/>
<path d="M252.762 129.399C252.029 132.372 250.094 135.07 247.325 136.659C245.146 131.761 241.053 125.886 237.367 125.998C237.143 125.998 236.899 126.019 236.645 126.059C233.05 122.068 235.178 114.066 240.269 114.86C245.818 118.108 250.38 123.779 252.762 129.399Z" fill="url(#paint8_linear)"/>
<path d="M234.008 144.101C232.603 141.179 231.778 137.422 231.737 134.846C231.717 132.789 232.236 131.038 233.794 129.674C234.507 129.053 235.372 128.584 236.268 128.33C236.268 128.33 236.268 128.33 236.278 128.33C237.48 127.983 237.999 128.157 238.63 128.533C241.247 130.081 244.79 135.467 246.317 140.792C246.928 143.531 240.229 147.4 237.276 148.265C233.845 148.937 229.711 148.113 226.361 146.993C229.273 146.993 232.277 146.524 235.291 145.526C234.802 145.099 234.405 144.62 234.038 144.101C234.018 144.091 234.008 144.091 234.008 144.101Z" fill="url(#paint9_linear)"/>
<path d="M230.373 137.667C230.495 138.094 230.638 138.532 230.79 138.95C230.688 138.685 230.607 138.451 230.556 138.257C225.577 141.505 217.096 138.573 217.473 133.411C217.839 128.442 226.158 126.64 230.78 130.275C230.811 130.214 230.841 130.163 230.872 130.102C230.627 130.53 230.414 130.998 230.251 131.507C230.088 132.006 229.966 132.546 229.894 133.116C229.742 134.47 229.925 136.068 230.373 137.667Z" fill="url(#paint10_radial)"/>
<path d="M223.907 148.407C222.217 147.714 220.629 146.91 219.254 146.065C213.268 144.487 208.065 140.974 204.562 136.362L204.542 136.372C205.784 138.031 207.26 139.549 208.91 140.882C211.364 144.762 215.375 148.895 219.662 150.911C221.118 151.593 222.604 152.041 224.07 152.143C225.312 151.654 226.432 151.135 227.41 150.585C227.776 150.382 228.133 150.168 228.479 149.954C228.856 150.056 229.334 150.168 229.843 150.28C227.868 149.852 225.832 149.191 223.907 148.407ZM224.366 154.098C223.694 154.037 222.686 153.986 221.199 153.518C219.265 152.907 217.391 151.929 215.63 150.697C213.471 149.191 211.465 147.276 209.735 145.169C208.849 144.09 208.034 142.97 207.301 141.809C206.181 140.037 205.245 138.194 204.552 136.372L204.573 136.362C204.461 136.209 204.349 136.066 204.237 135.914C201.274 131.821 199.624 126.903 199.92 121.731C198.097 123.176 196.509 124.918 195.134 126.832C195.134 126.832 195.134 126.832 195.124 126.842C192.986 129.805 191.326 133.195 190.033 136.596C190.909 133.552 192.059 130.528 193.556 127.738C195.073 124.938 196.946 122.372 199.288 120.254C199.573 120 199.858 119.745 200.154 119.511C200.276 118.778 200.429 118.035 200.632 117.302C197.557 116.884 194.951 115.337 192.446 113.596C192.456 113.565 192.467 113.534 192.477 113.504C192.426 113.667 192.365 113.83 192.304 113.982C192.029 114.685 191.713 115.367 191.336 116.019C187.081 123.421 176.39 127.493 167.522 129.54C166.656 129.744 165.811 129.917 164.986 130.08C165.679 129.907 166.391 129.723 167.114 129.53C177.225 126.76 189.972 121.079 191.408 111.58C191.469 111.162 191.509 110.735 191.53 110.297C191.53 110.185 191.54 110.073 191.54 109.961C182.784 118.91 167.42 123.268 157.269 120.906C139.42 116.864 125.095 103.546 116.278 87.6935C114.119 83.8143 112.286 79.7824 110.82 75.6893C110.077 73.6327 109.435 71.5658 108.875 69.4989C106.717 78.3366 108.784 89.7502 115.707 99.7383C108.763 90.6258 105.108 78.4689 107.776 67.6764C107.847 67.3811 107.918 67.096 108 66.8008C101.748 70.3745 98.2459 73.6225 89.286 77.7868C91.862 78.1838 94.214 78.8966 96.3521 79.8536C99.4371 81.2485 102.044 83.1728 104.1 85.4739C102.156 84.2623 99.5797 82.5721 96.0772 81.2689C93.094 80.1591 89.4489 79.3242 84.9487 79.314C73.81 79.3649 69.2384 81.3911 59.5863 85.1684C53.5995 90.5138 47.012 94.1894 43.4586 101.031C41.6972 104.412 42.0942 110.042 44.1509 115.204C46.4723 121.028 50.9115 126.241 56.7252 126.872C57.6314 126.974 58.5579 126.954 59.5252 126.821C60.6044 126.659 61.7651 126.312 62.152 126.149C62.5593 125.997 63.8829 125.366 65.7258 124.52C68.0777 123.441 71.2951 122.006 74.5634 120.763C78.5343 119.257 82.5865 118.025 85.2948 118.025C86.089 118.707 89.3879 120.336 93.4096 119.929C98.256 119.44 102.339 116.375 105.516 112.659C101.046 118.839 94.835 122.728 87.4228 120.937C86.2112 120.631 85.2541 120.244 84.7145 119.969C82.1487 120.071 77.5772 121.629 73.7896 123.126C71.794 123.91 70.0122 124.683 68.8617 125.223C68.8923 125.213 68.9126 125.203 68.9228 125.203C68.933 125.203 68.933 125.192 68.933 125.192C69.5846 124.907 70.2362 124.622 70.8879 124.347C70.8777 124.378 70.8777 124.398 70.8777 124.429C69.4522 132.37 69.5541 139.997 70.9999 147.093C72.1097 152.52 74.0136 157.631 76.6303 162.335C76.7932 162.142 76.9459 161.958 77.1088 161.765C82.9123 154.994 90.2838 149.364 97.7572 145.759C105.811 141.809 112.968 140.383 120.218 140.404C120.32 140.404 121.043 140.424 121.317 140.455C126.072 140.892 129.31 143.051 131.194 146.136C132.66 148.508 132.782 150.596 132.354 153.334C130.318 166.072 115.208 169.981 95.2219 181.945C97.0139 183.095 98.928 184.195 100.924 185.193C108.57 189.052 115.952 190.813 123.578 191.19C126.439 191.332 129.33 191.281 132.283 191.078C138.921 190.62 145.926 188.868 151.567 186.679C153.776 185.814 155.782 184.887 157.472 183.94C177.327 172.639 182.926 145.525 188.791 123.991V124.001C188.791 124.011 188.791 124.032 188.781 124.052C188.781 124.062 188.781 124.072 188.781 124.072C188.007 130.68 186.582 138.541 184.403 146.391C183.049 151.298 181.399 156.195 179.434 160.798L179.454 160.808C179.699 160.238 179.933 159.667 180.167 159.097C186.235 162.671 192.864 165.654 199.93 165.878C193.027 161.734 189.534 152.846 188.995 144.751C191.235 156.206 196.539 162.233 201.274 164.585C202.74 165.328 204.155 165.654 204.257 165.654C204.359 165.675 205.469 165.787 206.812 165.715C213.817 165.369 221.25 161.072 224.447 154.078C224.427 154.078 224.396 154.088 224.366 154.098Z" fill="#223454"/>
<path d="M191.54 109.952C191.54 110.064 191.53 110.176 191.53 110.288C191.509 110.725 191.469 111.153 191.408 111.571C186.398 123.31 172.796 127.403 158.847 128.268C161.504 129.042 164.294 129.449 167.104 129.521C167.236 129.521 167.379 129.531 167.511 129.531C167.674 129.531 167.837 129.531 168 129.531C172.633 129.531 177.316 128.615 181.603 126.863C179.312 149.864 175.097 178.087 151.587 186.65C145.947 188.849 138.942 190.6 132.303 191.048C129.351 191.252 126.459 191.303 123.598 191.16C115.972 190.784 108.59 189.022 100.944 185.163C98.9482 184.155 97.0341 183.066 95.2421 181.915C87.1783 178.077 82.678 171.021 77.129 161.746C75.8461 155.728 75.1945 149.945 75.1945 144.681C75.1945 136.678 77.3123 128.727 80.8351 121.416C77.3937 122.017 74.0745 123.045 70.8979 124.41C70.8979 124.379 70.908 124.359 70.908 124.328C70.2564 124.603 69.6048 124.888 68.9532 125.173C68.9532 125.173 68.943 125.173 68.943 125.183C68.9328 125.194 68.9124 125.194 68.8819 125.204C70.0426 124.664 71.8142 123.9 73.8098 123.106C77.5974 121.61 82.1689 120.052 84.7347 119.95C85.2743 120.225 86.2314 120.612 87.443 120.917C94.8552 122.709 101.066 118.81 105.536 112.64C102.359 116.356 98.2661 119.421 93.4298 119.909C89.408 120.317 86.1092 118.687 85.315 118.005C82.6067 118.005 78.5443 119.237 74.5836 120.744C71.3153 121.986 68.0979 123.422 65.746 124.501C63.9031 125.346 62.5795 125.978 62.1722 126.13C61.7853 126.293 60.6246 126.639 59.5454 126.802C58.5781 126.945 57.6414 126.955 56.7454 126.853C51.9193 125.163 48.6714 118.443 48.6714 117.812C48.6714 106.795 61.653 99.8311 77.6992 99.8311C77.801 99.8311 77.8926 99.8311 77.9944 99.8413C75.1232 98.3955 72.2011 97.3468 68.6783 97.3468C67.8026 97.3468 66.927 97.4282 66.0412 97.6013C78.2999 91.421 95.0996 95.1373 103.123 89.9345C104.752 94.5366 106.391 97.2857 107.959 98.9555C105.281 92.9992 105.546 84.9863 105.546 80.7812C112.327 101.623 121.735 117.282 137.425 122.679C121.745 111.713 117.56 98.8333 116.298 87.6844C125.115 103.537 139.43 116.845 157.289 120.897C167.409 123.259 182.784 118.911 191.54 109.952Z" fill="#1B2942"/>
<path d="M193.556 127.738C192.049 130.528 190.909 133.552 190.033 136.596C190.746 133.399 191.591 130.416 193.556 127.738Z" fill="#1B2942"/>
<path d="M204.552 136.373C205.244 138.196 206.181 140.038 207.301 141.81C208.319 150.413 217.462 155.28 217.462 155.28C217.462 155.28 208.93 162.509 204.552 162.509C194.075 162.509 190.216 150.434 189.015 144.752C187.997 152.898 192.456 163.436 192.456 163.436C184.413 162.754 180.187 159.098 180.187 159.098C181.837 155.352 183.252 150.882 184.423 146.392C187.202 135.793 188.658 125.153 188.801 124.074C188.801 124.063 188.801 124.053 188.801 124.053C188.801 124.033 188.811 124.013 188.811 124.002C188.811 123.992 188.811 123.992 188.811 123.992C188.811 123.992 188.954 141.393 190.033 136.617C191.326 133.217 192.986 129.826 195.124 126.863C191.947 131.934 190.674 139.916 192.975 147.919C192.181 143.663 193.77 139.214 195.989 137.595C197.649 137.87 200.703 137.137 204.236 135.945C204.348 136.098 204.46 136.241 204.572 136.393C208.075 141.006 213.278 144.518 219.264 146.096C220.639 146.942 222.227 147.736 223.917 148.438C222.563 149.568 221.117 150.485 219.672 150.943C215.385 148.927 211.374 144.793 208.92 140.914C207.26 139.55 205.794 138.033 204.552 136.373Z" fill="#1B2942"/>
<path d="M191.54 109.953C191.54 110.065 191.53 110.177 191.53 110.289C188.394 118.189 168.56 131.843 150.905 126.335C131.407 120.256 113.722 93.3972 110.82 75.6914C118.293 96.4721 135.042 115.868 157.269 120.898C167.409 123.26 182.784 118.912 191.54 109.953Z" fill="#1B2942"/>
<path d="M200.632 117.302C200.429 118.045 200.276 118.778 200.154 119.511C199.858 119.756 199.563 120 199.288 120.255C195.969 119.42 193.383 117.923 191.336 116.009C191.713 115.357 192.039 114.675 192.304 113.973C192.365 113.81 192.426 113.657 192.477 113.494C192.467 113.525 192.456 113.555 192.446 113.586C194.951 115.337 197.557 116.885 200.632 117.302Z" fill="#355182"/>
<path d="M73.8097 123.127C71.8141 129.816 70.9589 136.76 70.9589 143.785C70.9589 144.885 70.9792 145.985 71.02 147.074C69.564 139.957 69.4724 132.301 70.908 124.339C70.2564 124.613 69.6047 124.899 68.9531 125.184C68.9531 125.184 68.9429 125.184 68.9429 125.194C68.9327 125.204 68.9124 125.204 68.8818 125.214C70.0324 124.685 71.8141 123.911 73.8097 123.127Z" fill="#355182"/>
<path d="M96.1383 81.332C98.48 83.0221 97.0953 86.718 94.2139 86.494C92.7274 86.382 91.2307 86.3209 89.734 86.3209C68.6173 86.3209 47.0018 98.9767 44.1305 115.216C42.0738 110.064 41.6666 104.424 43.4382 101.044C46.9916 94.2015 53.5689 90.5259 59.5659 85.1806C69.2181 81.4032 73.7896 79.3669 84.9283 79.3262C89.4286 79.3465 93.0736 80.1712 96.0568 81.281C96.0874 81.2912 96.1179 81.3116 96.1383 81.332Z" fill="#355182"/>
<path d="M105.454 74.4889C105.77 72.6358 106.289 70.7929 106.961 69.0315C107.246 68.2985 107.552 67.5756 107.888 66.873C101.708 70.4264 98.1848 73.654 89.2759 77.7979C91.8518 78.1949 94.2038 78.9077 96.3419 79.8647C99.2131 78.0626 102.237 76.5354 105.342 75.2118C105.383 74.9776 105.414 74.7332 105.454 74.4889Z" fill="#355182"/>
<path d="M159.05 128.115C145.845 120.438 127.599 125.417 118.304 139.243C109.008 153.06 112.49 170.267 126.093 177.679C139.695 185.071 157.931 180.092 166.839 166.55C175.738 152.999 172.256 135.781 159.05 128.115ZM126.805 176.589C113.803 169.493 110.474 153.039 119.363 139.834C128.251 126.628 145.692 121.863 158.328 129.194C170.953 136.535 174.282 152.978 165.77 165.95C157.248 178.921 139.807 183.686 126.805 176.589ZM118.385 149.292C118.293 149.628 117.947 149.863 117.601 149.812C117.53 149.802 117.459 149.771 117.397 149.74L117.387 149.751C117.163 149.628 117.062 149.364 117.133 149.109C117.907 146.187 119.189 143.367 120.941 140.77C121.032 140.628 121.185 140.516 121.358 140.475C121.521 140.424 121.694 140.445 121.837 140.526C122.132 140.689 122.203 141.066 122 141.371C120.34 143.825 119.118 146.513 118.385 149.292ZM127.07 134.407C127.07 134.203 127.172 134 127.345 133.867C129.839 131.912 132.619 130.375 135.551 129.306C135.897 129.184 136.244 129.336 136.335 129.662C136.427 129.988 136.223 130.344 135.887 130.467C133.098 131.475 130.45 132.941 128.078 134.804C127.854 134.977 127.559 135.008 127.345 134.885C127.182 134.794 127.07 134.611 127.07 134.407ZM119.943 166.113C119.719 166.316 119.403 166.367 119.159 166.235C119.067 166.184 118.986 166.113 118.935 166.021C117.601 163.516 116.756 160.757 116.451 157.876C116.42 157.54 116.675 157.214 117.031 157.142C117.387 157.071 117.703 157.285 117.744 157.621C118.029 160.36 118.833 162.987 120.106 165.369C120.228 165.614 120.167 165.919 119.943 166.113ZM159.814 133.389C160.048 133.134 160.435 133.083 160.69 133.287C162.848 135.14 164.63 137.38 165.943 139.905C166.066 140.149 166.005 140.455 165.791 140.658C165.577 140.862 165.251 140.903 165.017 140.76L165.007 140.77C164.915 140.72 164.844 140.638 164.793 140.546C163.551 138.144 161.861 136.016 159.804 134.244C159.57 134.02 159.58 133.643 159.814 133.389ZM143.91 128.094C144.012 127.819 144.277 127.626 144.562 127.626C147.586 127.565 150.539 128.033 153.288 129.011C153.491 129.082 153.634 129.265 153.654 129.479C153.675 129.693 153.573 129.917 153.39 130.07C153.206 130.212 152.962 130.263 152.758 130.182C150.142 129.255 147.342 128.817 144.46 128.868C144.348 128.868 144.236 128.848 144.145 128.787C143.91 128.654 143.809 128.369 143.91 128.094ZM167.145 148.305C167.125 148.091 167.216 147.867 167.399 147.724C167.583 147.582 167.827 147.531 168.031 147.612C168.234 147.684 168.377 147.867 168.407 148.081C168.733 150.952 168.53 153.905 167.817 156.786C167.735 157.122 167.389 157.346 167.053 157.295C166.982 157.285 166.911 157.254 166.839 157.224C166.615 157.102 166.514 156.847 166.575 156.593C167.267 153.844 167.45 151.044 167.145 148.305ZM164.202 165.003L164.172 165.054C162.492 167.609 160.394 169.89 157.951 171.814C157.737 171.987 157.442 172.008 157.218 171.885L157.208 171.896C157.147 171.865 157.085 171.814 157.045 171.763C156.943 171.641 156.902 171.478 156.923 171.315C156.943 171.152 157.035 171 157.177 170.898C159.509 169.075 161.514 166.896 163.113 164.463L163.143 164.412C163.337 164.117 163.734 164.005 164.029 164.178C164.325 164.351 164.396 164.707 164.202 165.003ZM150.284 175.826C150.223 176.05 150.05 176.233 149.826 176.304C146.904 177.363 143.839 177.933 140.795 178.005C140.683 178.005 140.571 177.984 140.479 177.933L140.469 177.944C140.225 177.811 140.123 177.526 140.214 177.261C140.306 176.986 140.581 176.793 140.866 176.793C143.768 176.732 146.68 176.182 149.459 175.174C149.683 175.083 149.928 175.113 150.101 175.256C150.274 175.378 150.345 175.602 150.284 175.826ZM132.772 176.325C132.629 176.65 132.242 176.824 131.916 176.712C130.511 176.243 129.167 175.653 127.885 174.96C126.612 174.268 125.421 173.464 124.311 172.557C124.128 172.425 124.056 172.201 124.107 171.977C124.158 171.753 124.341 171.56 124.565 171.478C124.8 171.397 125.044 171.438 125.207 171.59C127.314 173.321 129.758 174.655 132.436 175.551C132.772 175.653 132.914 175.999 132.772 176.325ZM155.324 133.704C145.061 127.789 130.939 131.638 123.771 142.318C116.603 152.999 119.301 166.316 129.799 172.079C140.296 177.821 154.408 173.973 161.352 163.465C168.285 152.948 165.587 139.63 155.324 133.704ZM130.522 171C120.625 165.563 118.08 152.988 124.83 142.919C131.58 132.849 144.918 129.214 154.601 134.794C164.274 140.384 166.819 152.948 160.293 162.875C153.756 172.802 140.428 176.437 130.522 171ZM156.464 145.647C154.815 143.947 152.28 143.306 149.806 143.988L141.884 146.136C141.66 146.197 141.426 146.269 141.202 146.35V146.36C141.009 146.401 140.805 146.442 140.612 146.493L132.67 148.671C129.839 149.445 127.599 151.756 127.009 154.516C126.418 157.275 127.599 159.932 129.982 161.256C131.55 162.131 133.474 162.335 135.327 161.816L143.3 159.647C143.524 159.586 143.758 159.515 143.982 159.433L143.992 159.423C144.185 159.382 144.379 159.342 144.562 159.291L152.473 157.142C154.947 156.471 156.984 154.597 157.808 152.235C158.613 149.852 158.104 147.348 156.464 145.647ZM153.593 149.893C153.858 151.196 152.972 152.561 151.608 152.958L148.91 153.691C149.235 151.97 148.879 150.26 147.932 148.895L150.64 148.162C152.015 147.826 153.328 148.59 153.593 149.893ZM131.489 155.931C131.224 154.628 132.12 153.253 133.505 152.846L136.233 152.092C136.223 152.143 136.223 152.184 136.213 152.235C136.213 152.255 136.203 152.286 136.203 152.306C136.193 152.367 136.183 152.418 136.172 152.479C136.162 152.53 136.162 152.581 136.152 152.632C136.142 152.703 136.142 152.764 136.132 152.836C136.132 152.887 136.121 152.927 136.121 152.978C136.121 153.019 136.121 153.06 136.111 153.111C136.111 153.192 136.111 153.273 136.111 153.345C136.111 153.385 136.111 153.416 136.111 153.457C136.111 153.508 136.111 153.569 136.111 153.62C136.111 153.66 136.111 153.701 136.121 153.732C136.121 153.813 136.132 153.884 136.142 153.966C136.142 154.007 136.152 154.047 136.152 154.088C136.162 154.139 136.162 154.18 136.172 154.231C136.183 154.271 136.183 154.322 136.193 154.363C136.203 154.414 136.213 154.455 136.213 154.505C136.223 154.587 136.244 154.658 136.264 154.729C136.274 154.76 136.274 154.78 136.284 154.811C136.457 155.554 136.763 156.257 137.201 156.878L134.472 157.631C133.077 157.988 131.754 157.234 131.489 155.931ZM142.078 150.586C142.974 150.565 143.788 150.993 144.206 151.726C144.644 152.5 144.582 153.477 144.063 154.271C144.053 154.281 144.053 154.292 144.043 154.302C143.788 154.679 143.442 154.994 143.035 155.208C141.864 155.239 140.886 154.495 140.673 153.406C140.449 152.327 141.029 151.166 142.078 150.586ZM135.083 160.614C131.937 161.439 128.913 159.739 128.322 156.786C127.732 153.833 129.768 150.738 132.904 149.832L138.127 148.407C137.577 148.997 137.119 149.669 136.783 150.392C136.773 150.412 136.763 150.433 136.753 150.453C136.722 150.514 136.692 150.575 136.671 150.647C136.661 150.677 136.651 150.698 136.641 150.728L133.26 151.655C133.199 151.675 133.148 151.685 133.087 151.706C133.067 151.716 133.036 151.716 133.016 151.726C132.986 151.736 132.955 151.746 132.924 151.756C132.894 151.767 132.863 151.777 132.843 151.787C132.823 151.797 132.812 151.797 132.792 151.807C132.711 151.838 132.639 151.868 132.558 151.909C130.847 152.703 129.809 154.536 130.155 156.287C130.542 158.212 132.476 159.332 134.513 158.873C134.574 158.863 134.635 158.843 134.706 158.822L138.433 157.804C138.463 157.794 138.484 157.784 138.514 157.774L142.658 156.644C142.913 156.572 143.167 156.481 143.412 156.359C144.694 155.737 145.59 154.526 145.763 153.192C145.855 152.51 145.743 151.848 145.468 151.268C145.458 151.258 145.458 151.247 145.448 151.237C145.417 151.176 145.387 151.125 145.356 151.064C145.356 151.054 145.346 151.054 145.346 151.044C145.336 151.023 145.326 151.003 145.315 150.993C145.295 150.952 145.265 150.911 145.244 150.871C145.224 150.83 145.193 150.799 145.173 150.759C145.173 150.748 145.163 150.748 145.163 150.738C145.153 150.718 145.132 150.698 145.122 150.677C145.091 150.636 145.051 150.586 145.01 150.545C145 150.535 144.99 150.514 144.979 150.504C144.979 150.504 144.979 150.504 144.979 150.494C144.949 150.453 144.918 150.423 144.878 150.382C144.867 150.372 144.857 150.362 144.847 150.351L144.837 150.341C144.786 150.29 144.735 150.239 144.674 150.188C144.664 150.178 144.654 150.178 144.654 150.168C144.552 150.076 144.44 149.995 144.318 149.914C144.308 149.903 144.297 149.893 144.277 149.893L145.193 149.639L146.568 149.262C147.545 150.412 147.932 151.94 147.667 153.477C147.667 153.487 147.667 153.487 147.667 153.497C147.657 153.548 147.647 153.589 147.637 153.64C147.627 153.671 147.627 153.701 147.617 153.732C147.617 153.752 147.606 153.772 147.606 153.793C147.596 153.844 147.586 153.884 147.576 153.935C147.545 154.047 147.515 154.159 147.474 154.271C146.894 156.063 145.458 157.54 143.646 158.232L143.615 158.242C143.432 158.313 143.238 158.374 143.045 158.425L135.083 160.614ZM152.219 155.951L147.036 157.356C147.657 156.684 148.166 155.9 148.502 155.055L151.842 154.149C153.929 153.579 155.293 151.522 154.896 149.537C154.499 147.551 152.483 146.411 150.386 146.971L142.485 149.119C142.23 149.191 141.976 149.282 141.732 149.404C141.161 149.679 140.662 150.087 140.265 150.555C140.255 150.575 140.245 150.586 140.225 150.606C140.184 150.657 140.143 150.708 140.113 150.759C140.092 150.789 140.072 150.82 140.052 150.85C140.021 150.891 140.001 150.922 139.97 150.962C139.94 151.003 139.919 151.054 139.889 151.095C139.868 151.125 139.858 151.146 139.838 151.176C139.807 151.227 139.777 151.288 139.746 151.349C139.736 151.37 139.726 151.38 139.726 151.4C139.695 151.471 139.665 151.532 139.634 151.604C139.634 151.614 139.624 151.614 139.624 151.624C139.481 151.97 139.39 152.327 139.349 152.703C139.217 154.007 139.787 155.218 140.866 155.89L138.575 156.521C137.425 155.167 137.089 153.294 137.679 151.502C137.934 150.718 138.351 149.995 138.901 149.374L138.911 149.364C138.942 149.333 138.972 149.292 139.003 149.262C139.013 149.252 139.033 149.231 139.044 149.221C139.064 149.201 139.084 149.17 139.105 149.15C139.125 149.13 139.156 149.099 139.176 149.079C139.186 149.068 139.196 149.058 139.217 149.038C139.247 149.007 139.288 148.967 139.319 148.936C139.319 148.936 139.319 148.936 139.329 148.936C139.96 148.335 140.713 147.847 141.558 147.531C141.579 147.521 141.599 147.511 141.62 147.5C141.793 147.439 141.956 147.378 142.129 147.338L150.04 145.189C153.186 144.334 156.21 146.065 156.811 149.048C157.411 152.001 155.355 155.096 152.219 155.951Z" fill="white"/>
<path d="M256.753 116.041C257.792 117.599 258.199 119.696 257.568 121.895C256.977 123.728 255.806 125.815 254.086 127.648C254.065 127.597 254.045 127.556 254.014 127.505C253.78 127.006 253.526 126.508 253.261 126.029C254.564 124.614 255.338 123.28 256 121.651C256.387 120.47 256.478 119.421 256.081 118.159C255.257 115.043 248.353 110.644 242.183 113.77C241.756 113.495 241.43 113.302 241.155 113.149C241.145 113.149 241.145 113.139 241.135 113.139C241.094 113.108 241.043 113.088 241.002 113.068C240.962 113.047 240.921 113.017 240.88 112.996C240.463 112.976 240.055 112.996 239.668 113.037C242.356 111.428 245.034 110.828 247.62 111.072C247.844 111.092 248.058 111.123 248.282 111.153C248.282 111.153 248.282 111.153 248.282 111.143C250.675 111.5 252.976 112.589 255.114 114.279C255.908 114.941 256.183 115.216 256.753 116.041Z" fill="#2854A1"/>
<path d="M254.014 127.514C254.279 128.064 254.544 128.634 254.788 129.214C253.851 133.491 251.357 136.657 248.058 138.469C247.844 137.889 247.6 137.288 247.325 136.657C250.084 135.059 252.029 132.36 252.762 129.398C250.379 123.777 245.828 118.106 240.269 114.868C235.178 114.074 233.05 122.067 236.645 126.068C236.064 126.16 235.433 126.333 234.792 126.618C231.523 121.741 233.539 113.748 239.679 113.046C239.658 113.056 239.638 113.066 239.618 113.087C239.923 113.046 240.514 112.995 240.89 113.005C240.931 113.026 240.972 113.046 241.012 113.076C241.053 113.097 241.104 113.127 241.145 113.148C241.155 113.148 241.155 113.158 241.165 113.158C246.378 116.223 250.909 121.069 254.014 127.514Z" fill="#2854A1"/>
<path d="M248.282 111.154C248.069 111.123 247.845 111.093 247.631 111.072C247.845 111.093 248.058 111.123 248.282 111.154Z" fill="#2854A1"/>
<path d="M248.058 138.471C248.048 138.471 248.048 138.471 248.058 138.471C247.844 137.89 247.57 137.218 247.325 136.658C247.6 137.29 247.844 137.89 248.058 138.471Z" fill="#2854A1"/>
<path d="M248.282 111.153C248.068 111.122 247.844 111.092 247.631 111.071C247.122 111.02 246.602 111 246.083 111.02C243.843 108.037 240.85 105.583 237.327 103.863L236.248 103.333C236.319 102.61 240.921 56.7523 240.982 56.0702C240.33 55.1233 239.954 54.5735 239.709 54.2375C239.831 53.0055 239.923 52.0892 239.974 51.5801C240.514 52.3641 241.023 53.1073 242.754 55.6018L238.07 102.295C242.295 104.362 245.818 107.447 248.282 111.153Z" fill="url(#paint11_linear)"/>
<path d="M240.89 112.996C240.514 112.986 239.923 113.037 239.618 113.078C239.638 113.068 239.658 113.057 239.679 113.037C240.066 112.996 240.473 112.976 240.89 112.996Z" fill="#2854A1"/>
<path d="M239.933 51.5095L239.974 51.5706C239.923 52.0797 239.832 52.9859 239.709 54.228C238.946 53.1284 239.587 54.0448 237.123 50.4812C237.133 50.3285 237.154 50.1859 237.164 50.0434L237.184 49.8296C237.276 48.9132 237.347 48.2311 237.388 47.834L239.506 50.9088L239.567 50.9903L239.618 51.0717L239.669 51.1532L239.699 51.1939L239.75 51.2652L239.801 51.3365L239.852 51.4077L239.933 51.5095Z" fill="url(#paint12_linear)"/>
<path d="M239.934 51.5108L239.862 51.4082C239.883 51.439 239.903 51.48 239.934 51.5108Z" fill="#2854A1"/>
<path d="M239.853 51.4087L239.801 51.3359C239.822 51.3567 239.843 51.3879 239.853 51.4087Z" fill="#2854A1"/>
<path d="M239.761 51.2661L239.709 51.1934C239.72 51.2141 239.741 51.2349 239.761 51.2661Z" fill="#2854A1"/>
<path d="M239.679 51.1427L239.628 51.0605C239.638 51.0913 239.659 51.1221 239.679 51.1427Z" fill="#2854A1"/>
<path d="M239.567 50.9903L239.506 50.9082C239.526 50.9287 239.547 50.9595 239.567 50.9903Z" fill="#2854A1"/>
<path d="M237.123 50.4805C239.577 54.044 238.946 53.1175 239.709 54.2273C238.701 64.2664 235.565 95.5036 235.097 100.269C235.036 100.89 234.486 101.338 233.875 101.277L233.163 101.205C232.552 101.144 232.104 100.594 232.165 99.9733C232.674 94.8723 236.075 60.9472 237.123 50.4805Z" fill="url(#paint13_linear)"/>
<path d="M237.185 49.8281L237.164 50.0429C237.174 49.9713 237.185 49.8997 237.185 49.8281Z" fill="#2854A1"/>
<path d="M236.645 126.068C236.645 126.068 236.655 126.068 236.645 126.068C236.013 126.18 235.423 126.353 234.792 126.618C235.433 126.333 236.074 126.15 236.645 126.068Z" fill="#2854A1"/>
<path d="M234.008 144.102C234.019 144.122 234.029 144.143 234.039 144.174C234.019 144.153 233.998 144.133 233.977 144.112C233.987 144.102 233.998 144.102 234.008 144.102Z" fill="#2854A1"/>
<path d="M202.831 116.061C196.672 133.166 215.029 149.752 233.977 144.101C233.997 144.121 234.018 144.142 234.038 144.162C234.028 144.142 234.018 144.121 234.008 144.091C234.008 144.091 234.018 144.091 234.028 144.08C234.394 144.6 234.792 145.068 235.28 145.506C232.266 146.504 229.273 146.972 226.351 146.972C226.3 146.952 226.249 146.941 226.208 146.921C223.724 146.901 221.362 146.565 219.163 145.995C219.193 146.015 219.234 146.035 219.265 146.056C213.278 144.478 208.075 140.965 204.573 136.353C201.396 132.168 199.614 127.087 199.92 121.722C199.94 121.711 199.95 121.691 199.97 121.681C200.001 121.07 200.072 120.245 200.194 119.471C200.184 119.482 200.174 119.492 200.164 119.502C200.286 118.769 200.439 118.026 200.642 117.293H200.653C200.775 116.804 200.938 116.254 201.131 115.725C201.162 115.643 201.182 115.572 201.213 115.49C203.829 108.17 210.244 102.56 218.226 100.391L218.867 93.9971C218.929 93.3862 219.254 92.8364 219.743 92.48L226.667 87.5623C227.695 86.8292 227.868 85.3631 227.033 84.406L221.179 77.7065C220.792 77.2687 220.609 76.6782 220.67 76.0978L221.169 71.0884C221.23 70.5183 221.515 69.9888 221.963 69.6427L227.318 65.3969C228.133 64.7555 228.367 63.6151 227.868 62.6988L223.704 55.0015C223.246 54.1564 223.419 53.0975 224.121 52.4459L232.358 44.7181C233.285 43.8424 234.771 44.0053 235.494 45.054L237.408 47.8234C237.367 48.2205 237.296 48.9027 237.205 49.819C237.194 49.8903 237.194 49.9616 237.184 50.0329C237.174 50.1754 237.154 50.3179 237.143 50.4707C235.698 48.3733 236.37 49.3609 234.089 46.0417C233.957 45.8482 233.692 45.8279 233.539 45.9806L225.302 53.7084C225.18 53.8204 225.15 54.0139 225.231 54.1564L229.395 61.8537C230.301 63.5235 229.874 65.5802 228.397 66.7511C222.604 71.3328 222.92 71.0274 222.899 71.2513C222.36 76.6782 222.339 76.3727 222.492 76.5458L228.357 83.2555C229.864 84.9864 229.558 87.6539 227.685 88.9775L220.761 93.8953C220.568 94.0378 220.67 93.5389 219.845 101.745C218.308 102.163 215.508 102.825 212.199 104.851C207.81 107.528 204.481 111.438 202.831 116.061Z" fill="url(#paint14_linear)"/>
<path d="M231.727 134.846C231.768 137.421 232.602 141.179 233.997 144.101C233.987 144.101 233.977 144.111 233.967 144.111C232.877 143.093 231.9 141.586 231.177 139.916C231.055 139.641 230.943 139.356 230.831 139.071C230.067 137.045 229.691 134.876 229.894 133.115C230.037 131.964 230.383 130.956 230.872 130.101C231.839 128.39 233.336 127.25 234.791 126.619C235.423 126.344 236.013 126.181 236.655 126.069C236.655 126.069 236.655 126.059 236.645 126.059C236.899 126.018 237.133 125.998 237.367 125.998C241.053 125.886 245.146 131.76 247.325 136.658C247.569 137.208 247.844 137.89 248.048 138.47H248.058C248.302 139.152 248.506 139.794 248.649 140.364C249.657 144.966 241.572 149.477 237.876 150.535C237.286 150.709 234.588 151.116 231.085 150.515C231.024 150.505 230.963 150.495 230.892 150.485C230.78 150.464 230.668 150.444 230.556 150.423C230.495 150.413 230.444 150.403 230.383 150.393C230.322 150.383 230.271 150.373 230.21 150.362C230.098 150.342 229.976 150.311 229.864 150.291C226.127 149.487 222.207 147.888 219.265 146.086C221.535 146.687 223.907 147.002 226.351 147.002C229.701 148.122 233.834 148.947 237.266 148.275C240.218 147.41 246.918 143.541 246.307 140.802C244.78 135.477 241.236 130.091 238.62 128.543C237.988 128.166 237.469 127.993 236.268 128.339C236.268 128.339 236.268 128.339 236.258 128.339C235.362 128.594 234.486 129.062 233.783 129.683C232.226 131.038 231.717 132.789 231.727 134.846Z" fill="#2854A1"/>
<path d="M230.831 139.06C230.943 139.345 231.055 139.63 231.177 139.905C224.895 143.662 215.284 139.732 215.752 133.277C216.231 126.791 226.107 124.501 231.757 128.838C231.432 129.215 231.126 129.642 230.872 130.1C230.841 130.162 230.811 130.212 230.78 130.274C226.158 126.639 217.839 128.451 217.473 133.409C217.096 138.572 225.587 141.514 230.556 138.256C230.617 138.47 230.719 138.755 230.831 139.06Z" fill="#2854A1"/>
<path d="M230.546 150.414C230.658 150.434 230.77 150.455 230.882 150.475C230.77 150.455 230.658 150.434 230.546 150.414Z" fill="#19243B"/>
<path d="M230.2 150.342C230.261 150.352 230.312 150.362 230.374 150.372C230.312 150.372 230.261 150.362 230.2 150.342Z" fill="#19243B"/>
<path d="M199.94 165.869C193.037 161.725 189.544 152.837 189.005 144.742C191.245 156.196 196.549 162.224 201.284 164.576C202.75 165.319 204.165 165.645 204.267 165.645C204.369 165.665 205.479 165.777 206.823 165.706C213.828 165.36 221.26 161.063 224.457 154.069C224.712 153.977 225.017 153.855 225.353 153.712C225.384 153.702 225.414 153.692 225.445 153.671C225.475 153.661 225.506 153.651 225.536 153.631C225.567 153.621 225.597 153.61 225.628 153.59C226.056 153.407 226.483 153.213 226.911 153.01C226.972 152.979 227.033 152.949 227.104 152.918C224.152 162.713 213.675 168.699 204.094 167.559C204.196 167.569 204.298 167.58 204.41 167.59C195.501 168.883 187.111 165.594 179.322 161.165C179.373 161.043 179.434 160.911 179.485 160.778C179.729 160.208 179.963 159.638 180.198 159.068C186.256 162.652 192.874 165.645 199.94 165.869ZM200.154 166.001C200.143 165.991 200.133 165.991 200.123 165.981C200.133 165.981 200.143 165.991 200.154 166.001Z" fill="#19243B"/>
<path d="M226.351 146.981C223.907 146.981 221.525 146.666 219.265 146.065C219.234 146.045 219.193 146.024 219.163 146.004C221.362 146.574 223.724 146.91 226.209 146.93C226.249 146.951 226.3 146.961 226.351 146.981Z" fill="#2854A1"/>
<path d="M224.457 154.069C224.763 153.957 225.058 153.835 225.353 153.713C225.017 153.855 224.712 153.978 224.457 154.069Z" fill="#19243B"/>
<path d="M204.552 136.373C205.794 138.033 207.27 139.55 208.92 140.883C212.209 146.086 218.277 151.727 224.08 152.144C225.322 151.656 226.442 151.136 227.42 150.587C227.786 150.383 228.143 150.169 228.489 149.955C228.866 150.057 229.344 150.169 229.853 150.281C229.965 150.301 230.077 150.332 230.199 150.352C230.261 150.363 230.311 150.373 230.373 150.383C230.434 150.393 230.495 150.403 230.546 150.413C230.658 150.434 230.77 150.454 230.882 150.475C230.943 150.485 231.004 150.495 231.075 150.505C229.853 151.442 228.489 152.256 227.094 152.928C227.033 152.959 226.972 152.989 226.901 153.02C226.483 153.224 226.035 153.417 225.618 153.6C225.587 153.611 225.557 153.621 225.526 153.641C225.496 153.651 225.465 153.661 225.434 153.682C225.404 153.692 225.373 153.702 225.343 153.723C225.048 153.845 224.752 153.967 224.447 154.079C224.416 154.089 224.386 154.099 224.355 154.109C223.683 154.048 222.675 153.997 221.189 153.529C213.878 151.208 207.321 143.653 204.552 136.373Z" fill="#19243B"/>
<path d="M201.203 115.502C201.172 115.583 201.152 115.654 201.121 115.736C200.938 116.255 200.775 116.784 200.632 117.304C197.558 116.886 194.951 115.339 192.446 113.598C192.456 113.567 192.467 113.537 192.477 113.506C192.548 113.313 192.609 113.109 192.66 112.915C192.68 112.834 192.701 112.763 192.721 112.681C192.742 112.6 192.762 112.529 192.782 112.447C192.843 112.213 192.894 111.979 192.935 111.734C195.338 113.506 198.219 115.339 201.203 115.502Z" fill="#19243B"/>
<path d="M201.121 115.734C200.938 116.264 200.775 116.814 200.642 117.302H200.632C200.775 116.773 200.938 116.254 201.121 115.734Z" fill="#19243B"/>
<path d="M200.194 119.48C200.072 120.254 199.991 121.079 199.97 121.69C199.95 121.7 199.94 121.71 199.919 121.731C199.96 120.998 200.042 120.254 200.164 119.511C200.164 119.501 200.184 119.491 200.194 119.48Z" fill="#19243B"/>
<path d="M200.153 119.512C200.031 120.255 199.95 120.998 199.909 121.731C195.256 125.427 192.151 130.997 190.023 136.596C191.896 130.121 194.951 123.747 200.153 119.512Z" fill="#19243B"/>
<path d="M192.446 104.137C184.016 117.872 167.959 121.955 157.941 120.163C134.319 115.581 114.862 91.4103 109.782 66.4348C109.751 66.4348 109.354 64.093 109.344 64.0625C109.15 64.1643 108.967 64.2559 108.774 64.3578C102.644 67.6159 97.5128 72.6965 85.5901 77.4208C85.8548 77.4309 86.1195 77.4513 86.3843 77.4717C87.3719 77.5429 88.4206 77.6549 89.2656 77.7975C98.2255 73.623 101.738 70.3853 107.979 66.8115C108.02 66.669 108.061 66.5366 108.102 66.3941C108.102 66.4144 108.122 66.5366 108.163 66.6995C108.102 66.7301 108.041 66.7708 107.979 66.8013C104.884 77.7975 108.56 90.3717 115.687 99.7388C108.774 89.7507 106.697 78.3371 108.855 69.4995C115.015 92.4997 132.823 115.368 157.238 120.906C167.389 123.258 182.763 118.911 191.509 109.961C191.357 121.151 175.84 127.423 164.956 130.08C175.341 128.023 189.748 123.085 192.64 112.904C193.362 110.379 193.556 107.864 192.446 104.137ZM108.906 69.3773C108.926 69.2755 108.967 69.1329 109.018 68.9395C108.977 69.082 108.937 69.2348 108.906 69.3773Z" fill="#19243B"/>
<path d="M192.792 112.435C192.853 112.201 192.904 111.967 192.945 111.723C192.894 111.957 192.843 112.201 192.792 112.435Z" fill="#19243B"/>
<path d="M192.731 112.67C192.752 112.588 192.772 112.517 192.792 112.436C192.772 112.507 192.752 112.588 192.731 112.67Z" fill="#19243B"/>
<path d="M192.66 112.894C192.68 112.813 192.701 112.742 192.721 112.66C192.711 112.742 192.691 112.823 192.66 112.894Z" fill="#19243B"/>
<path d="M169.008 177.832C168.947 177.913 168.886 178.005 168.825 178.087C168.356 178.585 167.868 179.074 167.379 179.532C167.929 178.993 168.468 178.423 169.008 177.832Z" fill="#2854A1"/>
<path d="M160.832 184.726C161.555 184.278 162.258 183.799 162.94 183.311C162.217 183.84 161.494 184.339 160.771 184.797C160.781 184.787 160.781 184.787 160.791 184.777C160.791 184.756 160.812 184.736 160.832 184.726Z" fill="#2854A1"/>
<path d="M123.598 191.181C126.459 191.324 129.351 191.273 132.303 191.069C141.538 190.438 151.496 187.292 157.493 183.932C177.347 172.63 182.947 145.517 188.811 123.982C187.559 134.724 184.576 148.785 179.454 160.809C176.593 167.519 173.081 173.597 168.825 178.108C168.886 178.026 168.947 177.935 169.008 177.853C168.479 178.444 167.929 179.004 167.379 179.554C167.359 179.574 167.338 179.594 167.318 179.615C165.872 180.999 164.426 182.221 162.97 183.301C162.96 183.311 162.95 183.311 162.94 183.321C162.258 183.82 161.555 184.288 160.832 184.736C160.812 184.757 160.802 184.767 160.781 184.787C160.771 184.797 160.771 184.797 160.761 184.807C151.771 190.529 142.404 191.151 132.324 191.425C130.267 191.476 127.263 191.619 123.588 191.436L123.598 191.181Z" fill="#19243B"/>
<path d="M121.949 203.55C135.215 202.665 148.971 196.983 160.761 184.786C161.484 184.327 162.207 183.828 162.93 183.299C162.94 183.289 162.95 183.289 162.96 183.279C164.498 182.159 165.943 180.937 167.308 179.593C167.328 179.572 167.349 179.552 167.369 179.532C167.858 179.074 168.336 178.585 168.815 178.086C156.8 194.438 140.103 203.642 122.804 204.986C123.374 204.426 123.944 203.876 124.545 203.326C123.68 203.428 122.814 203.51 121.949 203.55Z" fill="#2854A1"/>
<path d="M123.598 191.181L123.588 191.425C116.053 191.048 105.638 189.266 94.4888 182.394C94.7433 182.241 94.9979 182.088 95.2422 181.936C97.0342 183.086 98.9483 184.186 100.944 185.184C108.6 189.042 115.972 190.794 123.598 191.181Z" fill="#19243B"/>
<path d="M124.545 203.338C123.954 203.888 123.374 204.438 122.804 204.998C121.816 205.069 120.839 205.12 119.851 205.15C120.34 204.631 120.839 204.122 121.358 203.613C121.551 203.603 121.755 203.592 121.948 203.572C122.814 203.511 123.679 203.43 124.545 203.338Z" fill="#2854A1"/>
<path d="M121.358 203.603C120.849 204.112 120.35 204.621 119.851 205.14C113.355 205.303 106.809 204.367 100.425 202.269C101.097 201.974 101.748 201.689 102.4 201.414C108.58 203.216 115.198 204 121.949 203.552V203.562C121.745 203.583 121.552 203.593 121.358 203.603Z" fill="#2854A1"/>
<path d="M119.851 205.14C120.839 205.12 121.816 205.059 122.804 204.987C107.481 220.076 102.013 238.79 78.3917 244.757C72.0689 246.172 67.7723 241.213 66.7949 235.838C65.5629 229.26 68.5563 220.952 70.5519 218.03C70.9897 217.368 71.9569 216.167 72.0384 216.065C78.0965 208.836 85.7938 204.651 94.3565 199.896C95.0692 200.222 95.7819 200.528 96.5048 200.823C88.7261 205.038 78.2492 210.384 72.5678 218.01C71.8755 218.906 71.5802 219.394 71.3053 219.893C69.3199 223.538 66.6829 231.918 68.9126 237.721C70.277 241.325 73.4231 244.227 77.7605 243.331C78.2695 243.219 79.2572 242.944 79.4506 242.883C99.6917 237.12 106.371 219.364 119.851 205.14Z" fill="#2854A1"/>
<path d="M109.781 66.4355C109.741 66.5374 109.71 66.6392 109.669 66.741C109.71 66.6392 109.741 66.5374 109.781 66.4355Z" fill="#2854A1"/>
<path d="M109.598 65.4785C109.598 65.4993 109.609 65.5305 109.609 65.5513C109.609 65.5305 109.598 65.5201 109.598 65.4993C109.598 65.4889 109.598 65.4785 109.598 65.4785Z" fill="#19243B"/>
<path d="M109.598 65.4981C109.598 65.4883 109.598 65.4785 109.588 65.4688V65.4785C109.598 65.4785 109.598 65.4883 109.598 65.4981Z" fill="#19243B"/>
<path d="M109.568 65.3265C109.558 65.255 109.537 65.1731 109.527 65.1016C109.537 65.1731 109.558 65.2447 109.568 65.3265Z" fill="#19243B"/>
<path d="M109.517 65.0209C109.497 64.9293 109.486 64.8377 109.466 64.7461C109.476 64.8377 109.497 64.9293 109.517 65.0209Z" fill="#19243B"/>
<path d="M109.395 64.36C109.385 64.3085 109.374 64.2672 109.374 64.2363C109.374 64.2776 109.385 64.3188 109.395 64.36Z" fill="#2854A1"/>
<path d="M109.354 64.0938C109.354 64.1145 109.364 64.1457 109.364 64.1664C109.354 64.1353 109.354 64.1145 109.354 64.0938Z" fill="#2854A1"/>
<path d="M109.059 68.7461C108.997 68.9803 108.936 69.2144 108.885 69.4486C108.906 69.3468 108.967 69.1025 109.059 68.7461Z" fill="#2854A1"/>
<path d="M108.183 66.7004C108.122 66.7309 108.061 66.7717 108 66.8022C108.04 66.6597 108.081 66.5273 108.122 66.3848C108.112 66.4153 108.142 66.5273 108.183 66.7004Z" fill="#19243B"/>
<path d="M101.046 201.006C101.494 201.148 101.942 201.291 102.4 201.423C101.942 201.281 101.494 201.148 101.046 201.006Z" fill="#2854A1"/>
<path d="M101.046 201.006C101.494 201.148 101.942 201.291 102.4 201.423C101.748 201.708 101.097 201.993 100.425 202.279C100.425 202.279 100.425 202.279 100.415 202.279C100.007 202.146 99.6001 202.004 99.1826 201.861C99.8139 201.566 100.435 201.281 101.046 201.006Z" fill="#2854A1"/>
<path d="M100.415 202.279C100.425 202.279 100.425 202.279 100.415 202.279C86.6795 208.296 68.994 216.93 68.8311 232.854C68.6988 217.439 85.0199 208.428 99.1826 201.861C99.6 202.004 100.007 202.136 100.415 202.279Z" fill="#2854A1"/>
<path d="M101.046 201.005C100.435 201.29 99.8138 201.565 99.1928 201.86C98.2968 201.545 97.4008 201.209 96.5049 200.842C97.0445 200.547 97.5739 200.262 98.0932 199.977C99.0604 200.343 100.048 200.689 101.046 201.005Z" fill="#2854A1"/>
<path d="M98.093 199.966C98.0828 199.966 98.0828 199.966 98.093 199.966C97.3395 199.681 96.6064 199.386 95.8733 199.07C96.5962 199.386 97.3395 199.681 98.093 199.966Z" fill="#2854A1"/>
<path d="M98.0828 199.967C97.5738 200.252 97.0341 200.537 96.4945 200.832C95.7818 200.537 95.0589 200.231 94.3462 199.906C94.8451 199.631 95.3542 199.346 95.8632 199.061C96.5963 199.386 97.3396 199.682 98.0828 199.967Z" fill="#2854A1"/>
<path d="M95.8734 199.071C95.3643 199.356 94.8552 199.631 94.3563 199.916C89.6117 197.767 84.9791 194.927 81.0083 191.496C81.4156 191.19 81.8126 190.895 82.2097 190.6C86.2009 194.021 90.8233 196.892 95.8734 199.071Z" fill="#2854A1"/>
<path d="M89.2756 77.7988C88.8582 77.9923 88.4306 78.1857 88.0029 78.3792C88.4407 78.1857 88.8582 77.9923 89.2756 77.7988Z" fill="#19243B"/>
<path d="M89.2759 77.7984C88.8584 77.9919 88.441 78.1853 88.0032 78.3788C87.993 78.3788 87.993 78.389 87.9828 78.389C87.8301 78.4602 87.6773 78.5213 87.5246 78.5926C87.3312 78.6842 87.1377 78.7656 86.9341 78.8471L86.3843 77.4727C87.3821 77.5337 88.4206 77.6559 89.2759 77.7984Z" fill="#19243B"/>
<path d="M87.5244 78.5923C87.6771 78.521 87.8299 78.4599 87.9826 78.3887C87.8299 78.4498 87.6771 78.521 87.5244 78.5923Z" fill="#19243B"/>
<path d="M86.9443 78.8463C87.1378 78.7649 87.3312 78.6732 87.5349 78.5918C87.3312 78.6732 87.1378 78.7649 86.9443 78.8463Z" fill="#19243B"/>
<path d="M79.9708 190.082C79.889 190.143 79.8174 190.205 79.7458 190.256C79.8174 190.205 79.889 190.143 79.9708 190.082Z" fill="#2854A1"/>
<path d="M77.4041 164.117C77.1393 164.443 76.8033 164.86 76.5691 165.156C76.8338 164.81 77.1189 164.463 77.4041 164.117Z" fill="#19243B"/>
<path d="M76.6402 162.325C76.2839 162.753 75.9275 163.18 75.5915 163.618C64.5445 145.342 68.6986 127.076 68.7088 125.661C68.7088 125.661 68.7393 125.6 68.8208 125.447C68.8309 125.417 68.8513 125.386 68.8615 125.356C68.8818 125.305 68.9124 125.254 68.9531 125.193C69.6047 124.908 70.2564 124.623 70.908 124.348C68.3728 138.388 70.5822 151.451 76.6402 162.325Z" fill="#19243B"/>
<path d="M70.2872 175.338C70.2159 175.48 70.1548 175.633 70.0938 175.776C70.1548 175.633 70.2261 175.491 70.2872 175.338Z" fill="#2854A1"/>
<path d="M70.0937 175.775C69.9002 176.213 69.717 176.661 69.5337 177.109C69.5337 177.109 69.5337 177.109 69.5337 177.099C69.7068 176.671 69.89 176.234 70.0937 175.775Z" fill="#2854A1"/>
<path d="M68.9336 125.193C68.8825 125.214 68.8212 125.244 68.77 125.265C68.8007 125.255 68.8211 125.244 68.8518 125.224C68.8621 125.224 68.8723 125.214 68.8723 125.214C68.903 125.204 68.9234 125.204 68.9336 125.193Z" fill="#2854A1"/>
<path d="M68.8619 125.355C68.8516 125.386 68.8311 125.417 68.8208 125.448C68.8311 125.417 68.8413 125.386 68.8619 125.355Z" fill="#2854A1"/>
<path d="M68.8515 125.234C68.821 125.245 68.8006 125.255 68.7701 125.275C68.5969 125.357 68.4238 125.428 68.2507 125.499C68.5155 125.377 68.7293 125.285 68.8515 125.234Z" fill="#2854A1"/>
<path d="M68.8617 125.356C68.8413 125.387 68.8312 125.417 68.821 125.448C68.7395 125.601 68.709 125.662 68.709 125.662C68.7293 125.529 68.7497 125.397 68.7701 125.275C68.821 125.254 68.8821 125.224 68.933 125.204C68.9432 125.204 68.9432 125.193 68.9432 125.193C68.9126 125.254 68.8923 125.305 68.8617 125.356Z" fill="#2854A1"/>
<path d="M68.2509 125.499C68.4138 125.428 68.5869 125.347 68.7701 125.275C68.7498 125.408 68.7294 125.54 68.7091 125.662C62.2641 138.44 61.9688 157.551 69.381 173.475C69.096 174.066 68.8312 174.656 68.5767 175.257C60.635 159.211 60.3805 139.947 66.3367 126.375C66.3469 126.375 66.3469 126.365 66.3571 126.365C66.3775 126.355 66.3876 126.355 66.408 126.344C66.4182 126.344 66.4284 126.334 66.4385 126.324C66.7236 126.192 67.2327 125.958 67.7316 125.734C67.8029 125.703 67.8742 125.672 67.9454 125.632C68.0167 125.601 68.0982 125.56 68.1694 125.53C68.2 125.52 68.2305 125.51 68.2509 125.499Z" fill="#2854A1"/>
<path d="M68.2515 125.498C68.2207 125.508 68.1899 125.529 68.1592 125.539C68.2002 125.519 68.231 125.508 68.2515 125.498Z" fill="#2854A1"/>
<path d="M61.3374 128.432C61.5716 133.848 56.3993 139.275 51.451 148.693C51.2372 147.553 51.3492 148.092 50.9521 146.229C55.8088 137.768 59.9731 132.952 59.7287 128.747C59.8 128.737 59.8713 128.727 59.9425 128.717C60.0036 128.707 60.0647 128.696 60.136 128.686C60.2073 128.676 60.2887 128.656 60.36 128.645C60.4109 128.635 60.4618 128.625 60.5127 128.615C60.7978 128.564 61.0625 128.493 61.3374 128.432Z" fill="#2854A1"/>
<path d="M60.3701 128.646C60.4212 128.636 60.4724 128.625 60.5235 128.615C60.4724 128.625 60.4212 128.636 60.3701 128.646Z" fill="#2854A1"/>
<path d="M59.9526 128.716C60.014 128.706 60.0754 128.696 60.1469 128.686C60.0856 128.696 60.014 128.706 59.9526 128.716Z" fill="#2854A1"/>
<path d="M54.1899 171.255L54.027 171.51C43.713 188.269 28.5526 204.692 14.8787 218.417L15.7951 214.934C22.1484 190.885 23.5433 166.877 7.65995 147.838C4.50365 144.05 1.71389 141.678 0.135742 140.273C3.01714 131.384 6.17344 119.136 8.55593 109.779C16.2634 79.5189 15.622 81.0767 16.0292 78.6738C16.6096 78.9793 17.4139 79.6614 17.8925 80.1298C23.1055 85.4548 29.5606 93.9055 35.1503 103.833C34.9059 104.046 34.6718 104.27 34.4376 104.494C34.4274 104.505 34.4172 104.515 34.407 104.525C34.2951 104.627 34.1932 104.729 34.0914 104.841C29.5708 96.624 23.7876 88.1529 17.3732 81.3312C16.9761 80.9036 16.9761 80.9545 16.9354 80.6694C16.9252 80.5778 16.9049 80.476 16.8743 80.3742C16.7827 82.5021 17.3732 79.5087 13.6773 95.056C9.89991 110.99 5.54218 129.266 2.34515 139.672C23.9607 158.742 25.376 183.972 18.5339 211.982C30.141 200.11 43.4381 184.95 52.2045 170.777C51.4918 159.119 50.3107 149.68 47.2359 138.012C47.2562 137.992 47.2766 137.972 47.297 137.951C47.3072 137.941 47.3173 137.931 47.3275 137.921C47.3377 137.91 47.3479 137.9 47.3581 137.89C47.3682 137.88 47.3784 137.87 47.3886 137.86C47.3988 137.849 47.409 137.839 47.4191 137.829C47.4293 137.819 47.4293 137.819 47.4395 137.809C47.4497 137.798 47.4497 137.798 47.4599 137.788C47.4701 137.778 47.4802 137.768 47.5006 137.748C47.521 137.727 47.5413 137.707 47.5719 137.676L47.5821 137.666C47.5922 137.656 47.5922 137.646 47.6024 137.646C47.6126 137.636 47.6228 137.625 47.6228 137.625C47.633 137.615 47.6533 137.605 47.6635 137.585L47.6737 137.574C47.7042 137.544 47.7348 137.513 47.7653 137.493C47.8468 137.412 47.9282 137.33 48.0199 137.249C48.03 137.238 48.0504 137.228 48.0606 137.208C48.0911 137.177 48.1115 137.157 48.142 137.126C48.3151 136.964 48.4882 136.811 48.5697 136.74C48.59 136.719 48.6104 136.709 48.6206 136.689C49.8118 141.22 50.718 145.099 51.4307 148.713C52.9172 156.095 53.5892 162.438 54.1899 171.255Z" fill="#2854A1"/>
<path d="M48.1626 137.106C48.3051 136.973 48.4477 136.841 48.5902 136.719C48.5088 136.79 48.3357 136.943 48.1626 137.106Z" fill="#2854A1"/>
<path d="M48.0811 137.187C48.2745 137.004 48.4578 136.831 48.641 136.668V136.678C48.6207 136.699 48.6105 136.709 48.5901 136.729C48.4476 136.851 48.3051 136.984 48.1625 137.116C48.132 137.126 48.1014 137.157 48.0811 137.187Z" fill="#2854A1"/>
<path d="M48.2031 136.648C50.0256 135.121 51.7667 134.052 53.9964 132.922C52.011 134.011 50.4227 135.04 48.6409 136.648C48.6307 136.608 48.5595 136.363 48.5595 136.353C48.4475 136.455 48.3253 136.547 48.2031 136.648Z" fill="#2854A1"/>
<path d="M48.0401 137.219C47.9485 137.3 47.867 137.382 47.7856 137.463C47.755 137.494 47.7346 137.514 47.7041 137.545C47.7245 137.514 47.867 137.382 48.0401 137.219Z" fill="#2854A1"/>
<path d="M47.7041 137.543C47.6941 137.553 47.6941 137.553 47.7041 137.543C47.6941 137.553 47.6941 137.553 47.6841 137.563C47.6941 137.563 47.6941 137.553 47.7041 137.543Z" fill="#2854A1"/>
<path d="M47.6428 137.605C47.6328 137.616 47.6228 137.626 47.6228 137.626C47.6228 137.626 47.6328 137.616 47.6428 137.605Z" fill="#2854A1"/>
<path d="M47.6113 137.635C47.6016 137.645 47.6016 137.644 47.5918 137.654L47.582 137.664C47.5918 137.654 47.6016 137.645 47.6113 137.635Z" fill="#2854A1"/>
<path d="M47.5523 137.207C47.5011 137.258 47.4398 137.309 47.3887 137.36C47.4398 137.309 47.5011 137.258 47.5523 137.207Z" fill="#2854A1"/>
<path d="M47.5114 137.736C47.5011 137.747 47.4908 137.757 47.4702 137.778C47.4908 137.757 47.5011 137.747 47.5114 137.736Z" fill="#2854A1"/>
<path d="M47.46 137.788C47.4701 137.778 47.4701 137.778 47.4802 137.768C47.4701 137.778 47.46 137.788 47.46 137.788Z" fill="#2854A1"/>
<path d="M47.4395 137.809C47.4395 137.799 47.4496 137.799 47.4597 137.789C47.4496 137.799 47.4496 137.799 47.4395 137.809Z" fill="#2854A1"/>
<path d="M47.4385 137.809C47.4287 137.818 47.419 137.828 47.4092 137.838C47.419 137.828 47.4287 137.818 47.4385 137.809Z" fill="#2854A1"/>
<path d="M47.4078 137.84C47.398 137.85 47.3882 137.859 47.3784 137.869C47.3784 137.859 47.3882 137.85 47.4078 137.84Z" fill="#2854A1"/>
<path d="M47.3672 137.879C47.3575 137.889 47.3477 137.898 47.3379 137.908C47.3477 137.898 47.3575 137.889 47.3672 137.879Z" fill="#2854A1"/>
<path d="M47.3365 137.91C47.3267 137.92 47.3169 137.93 47.3071 137.94C47.3267 137.92 47.3267 137.92 47.3365 137.91Z" fill="#2854A1"/>
<path d="M47.2463 137.951V137.941V137.93V137.92C47.2463 137.91 47.2463 137.91 47.2463 137.9V137.89V137.88V137.869C47.2463 137.859 47.2463 137.859 47.2463 137.849C47.2463 137.839 47.2463 137.839 47.2463 137.829C47.2463 137.818 47.2463 137.818 47.2361 137.808V137.798L47.2259 137.778C47.2259 137.768 47.2259 137.768 47.2259 137.757L47.2157 137.727V137.717V137.706V137.696V137.686C47.2157 137.676 47.2157 137.676 47.2157 137.666V137.656C47.2056 137.635 47.2056 137.594 47.2056 137.594C47.2768 137.523 47.3583 137.452 47.4499 137.381C47.5008 137.33 47.5619 137.279 47.6128 137.228C47.8266 137.045 48.0506 136.851 48.2645 136.668C48.3866 136.566 48.5088 136.474 48.6208 136.383C48.6208 136.383 48.6921 136.627 48.7023 136.678C48.519 136.851 48.3357 137.014 48.1423 137.197C48.1321 137.208 48.1117 137.228 48.1015 137.238C47.9285 137.391 47.7859 137.533 47.7656 137.564C47.7554 137.574 47.7554 137.574 47.7452 137.584C47.735 137.594 47.7248 137.605 47.7045 137.625C47.6943 137.635 47.6841 137.645 47.6841 137.645C47.6739 137.656 47.6637 137.666 47.6536 137.676C47.6332 137.696 47.6128 137.717 47.5823 137.747C47.5721 137.757 47.5619 137.768 47.5416 137.788C47.5314 137.798 47.5314 137.798 47.5212 137.808C47.511 137.818 47.511 137.818 47.5008 137.829C47.4907 137.839 47.4805 137.849 47.4703 137.859C47.4601 137.869 47.4499 137.88 47.4397 137.89C47.4296 137.9 47.4194 137.91 47.4092 137.92C47.399 137.93 47.3888 137.941 47.3787 137.951C47.3583 137.971 47.3379 137.992 47.3176 138.012C47.3176 138.012 47.3176 138.012 47.3176 138.002C47.2565 137.981 47.2463 137.971 47.2463 137.951C47.2463 137.961 47.2463 137.951 47.2463 137.951Z" fill="#2854A1"/>
<path d="M47.2565 137.992C46.3299 138.929 45.4034 139.967 44.3954 141.25C40.0886 146.769 39.4675 148.988 38.0014 150.22C35.8531 151.992 32.6968 151.91 30.6197 149.966C30.2633 149.609 30.1004 149.436 29.7034 148.866C29.5201 142.889 30.3448 141.637 31.0575 136.536C31.0066 131.211 26.1602 125.744 26.1602 118.515C27.4939 113.291 30.3753 108.547 34.1018 104.831C34.1527 104.78 34.2647 104.668 34.4174 104.515C34.4276 104.505 34.4378 104.495 34.448 104.484C34.6414 104.291 34.896 104.057 35.1607 103.823C37.3599 101.827 39.7933 100.188 42.3591 98.9863C42.186 99.2714 42.0333 99.5565 41.8704 99.8518C41.8297 99.923 41.7889 99.9943 41.7584 100.066C41.6362 100.29 41.5242 100.524 41.4122 100.758C41.4122 100.768 41.402 100.768 41.402 100.778C41.402 100.788 41.3919 100.799 41.3919 100.799C41.3715 100.829 41.3511 100.89 41.3206 100.962C41.3206 100.962 41.3206 100.962 41.3206 100.972C41.3104 100.992 41.3104 101.002 41.3002 101.023C41.29 101.033 41.29 101.053 41.2799 101.063C41.1679 101.328 41.066 101.593 40.9948 101.847C40.9846 101.868 40.9846 101.888 40.9744 101.908C34.9163 105.492 29.8764 111.805 28.0845 118.759C28.1354 124.349 31.6684 129.154 32.6968 134.072C32.9717 135.375 33.0022 136.506 32.9615 136.73C32.1979 142.238 31.5462 142.533 31.5971 148.265C32.9004 150.281 36.2094 150.709 38.0828 148.275C40.9031 144.406 43.5911 140.782 47.1241 137.575C47.1241 137.575 47.1343 137.615 47.1343 137.636V137.646C47.1343 137.646 47.1343 137.656 47.1343 137.666V137.676C47.1343 137.676 47.1343 137.676 47.1343 137.687V137.697V137.707C47.1343 137.717 47.1343 137.727 47.1445 137.727C47.1445 137.737 47.1547 137.758 47.1547 137.768C47.1547 137.768 47.1547 137.768 47.1547 137.778V137.788C47.1547 137.799 47.1547 137.799 47.1648 137.809C47.1648 137.819 47.1648 137.819 47.1648 137.829C47.1648 137.839 47.1648 137.839 47.1648 137.85V137.86V137.87C47.1648 137.88 47.1648 137.88 47.1648 137.88C47.1648 137.88 47.1648 137.89 47.1648 137.9V137.911V137.921V137.931C47.1648 137.931 47.1648 137.931 47.1648 137.941C47.2463 137.972 47.2565 137.982 47.2565 137.992Z" fill="#2854A1"/>
<path d="M47.2157 137.819C47.2157 137.819 47.2157 137.809 47.2056 137.799C47.2056 137.809 47.2056 137.819 47.2157 137.819Z" fill="#2854A1"/>
<path d="M47.1953 137.768L47.2054 137.788C47.2054 137.788 47.2054 137.788 47.2054 137.778C47.1953 137.778 47.1953 137.768 47.1953 137.768Z" fill="#2854A1"/>
<path d="M47.1953 137.767V137.778C47.1953 137.767 47.1851 137.747 47.1851 137.736V137.747C47.1953 137.757 47.1953 137.757 47.1953 137.767Z" fill="#2854A1"/>
<path d="M47.1851 137.707L47.1948 137.736V137.727C47.1851 137.727 47.1851 137.717 47.1851 137.707Z" fill="#2854A1"/>
<path d="M42.3691 98.9965C42.3691 98.9965 42.3793 98.9965 42.3793 98.9863C42.2164 99.2612 42.0433 99.5565 41.8804 99.8619C42.0331 99.5667 42.196 99.2714 42.3691 98.9965Z" fill="#2854A1"/>
<path d="M41.4124 100.789C41.3817 100.85 41.3612 100.912 41.3306 100.973C41.3612 100.902 41.3817 100.85 41.4022 100.81C41.4022 100.799 41.4124 100.789 41.4124 100.789Z" fill="#2854A1"/>
<path d="M41.3308 100.971C41.3205 100.991 41.3205 101.001 41.3103 101.022C41.3205 101.001 41.3205 100.991 41.3308 100.971Z" fill="#2854A1"/>
<path d="M35.1707 103.822C34.9162 104.056 34.6616 104.301 34.458 104.484C34.6922 104.26 34.9264 104.036 35.1707 103.822Z" fill="#2854A1"/>
<path d="M34.1016 104.831C34.2034 104.729 34.3154 104.617 34.4172 104.516C34.2645 104.668 34.1525 104.791 34.1016 104.831C34.1117 104.831 34.1016 104.831 34.1016 104.831Z" fill="#2854A1"/>
<path d="M96.0161 147.327C80.6928 152.458 69.9104 164.656 63.8523 179.888C62.1622 184.184 60.9913 188.674 60.5942 193.368C60.187 198.011 60.6553 201.707 61.7244 205.576C62.8545 209.231 69.381 209.72 73.5351 203.926C73.7591 203.631 74.2478 202.878 74.8587 202.002C92.2489 176.741 113.875 167.843 109.548 152.244C108.54 148.793 103.418 144.802 96.0161 147.327ZM65.6036 179.389C73.7693 162.813 87.5043 153.018 93.1246 150.575C96.3623 149.18 100.618 148.111 104.375 148.589C100.14 148.284 94.9063 149.954 91.3529 152.132C82.4847 157.62 63.2414 174.094 61.0015 197.135C61.2051 191.454 62.3658 186.047 65.6036 179.389Z" fill="#2496ED"/>
<path d="M109.537 152.235C113.915 167.986 91.8617 176.834 74.329 202.756C74.0846 203.113 73.7079 203.673 73.5246 203.917C70.4701 208.183 66.5909 208.478 64.0557 207.175C60.7874 204.854 60.0238 191.831 67.9451 178.107C75.5508 164.932 86.4146 152.836 99.895 148.885C102.278 148.183 106.35 149.059 107.847 149.456C108.692 150.331 109.262 151.309 109.537 152.235Z" fill="url(#paint15_linear)"/>
<path d="M104.375 148.59C100.14 148.285 94.9062 149.955 91.3529 152.133C82.4847 157.621 63.2414 174.095 61.0015 197.136C61.2051 191.445 62.3658 186.038 65.6036 179.39C73.7692 162.814 87.5042 153.019 93.1245 150.576C96.352 149.181 100.618 148.101 104.375 148.59Z" fill="#2854A1"/>
<path d="M108.112 148.203C105.403 145.79 101.687 144.66 97.0138 145.617C96.7491 145.668 96.0465 145.851 95.9447 145.882C89.0009 147.959 82.5661 151.4 75.9989 157.509C65.2777 167.355 59.2604 180.703 58.8939 195.324C58.8022 197.9 59.0568 200.323 59.4844 202.858C60.0444 205.414 60.2786 207.307 62.1723 208.651C65.4508 211.064 71.3969 209.934 75.1233 204.64C95.1302 176.824 113.467 170.562 111.309 154.74C110.922 152.011 110.209 150.056 108.112 148.203ZM74.1663 203.001C74.095 203.102 73.6775 203.734 73.5248 203.927C69.3707 209.71 62.8443 209.242 61.7142 205.577C60.4313 200.924 60.0953 196.688 60.7978 191.455C63.2719 172.272 77.1495 153.65 96.016 147.327C103.408 144.802 108.529 148.783 109.527 152.235C113.936 168.078 91.3426 177.261 74.1663 203.001Z" fill="#2854A1"/>
<path d="M188.638 25.524C183.232 26.4199 176.654 25.636 172.867 23.5996C175.066 24.1087 177.428 24.3022 179.719 24.3022C182 24.3124 189.494 23.1618 189.758 23.0804C190.919 22.7444 193.475 21.828 193.607 20.6368C193.861 17.4805 188.19 13.2348 180.717 11.5242C175.789 10.4144 171.665 10.5468 167.074 11.341C168.692 9.90537 172.47 6.7287 171.879 4.60075C171.248 2.40152 164.599 1.77026 158.765 3.33822C146.038 6.78979 138.606 14.538 137.191 15.4136C137.191 15.4136 137.527 14.7416 138.015 14.0187C138.321 13.5504 140.876 8.52067 140.102 7.42105C139.99 7.23778 139.644 7.19706 139.43 7.18688C132.028 6.97306 120.615 18.9263 114.608 32.2642C120.574 36.7645 125.492 44.136 126.795 50.0718C122.824 40.2568 108.377 25.9821 99.7221 32.0402C99.7221 32.0402 99.5287 32.1726 99.5389 32.1726C97.5229 34.4532 101.575 50.1635 115.738 57.5451C113.59 56.9241 111.553 55.9568 109.67 54.7554C109.507 63.2672 110.902 71.3921 113.63 79.3847C123.109 107.231 150.834 126.495 175.616 118.472C190.858 113.544 195.694 97.5691 196.702 91.6128C195.714 92.1728 194.666 92.6106 193.627 92.8957C192.64 93.1604 191.469 93.2521 190.227 93.2317C189.259 95.5938 187.956 98.2614 186.093 99.9923C185.329 100.695 184.606 101.367 183.558 101.54C183.069 101.611 182.651 101.581 182.234 101.53C181.389 101.397 180.615 101.112 179.862 100.807C179.617 101.031 179.342 101.245 179.057 101.428C179.078 101.418 179.098 101.418 179.118 101.408C177.469 103.658 175.168 105.877 172.602 105.877C167.97 105.877 165.669 100.176 163.887 95.94C157.208 95.3291 150.192 91.2565 148.227 84.6792C146.741 79.5782 148.563 75.7804 153.919 74.579C159.112 73.4285 169.741 74.4263 175.83 75.2103C178.172 73.6728 185.513 73.8968 188.496 74.7928C192.324 74.5484 196.346 74.6706 199.186 75.9433C201.671 66.0264 203.524 55.3154 200.846 44.6654C198.901 37.1106 194.197 30.3093 188.638 25.524Z" fill="url(#paint16_radial)"/>
<path d="M100.007 33.1094C102.084 46.8648 116.318 62.9212 121.888 53.9715C121.898 48.1273 108.458 33.3334 100.007 33.1094Z" fill="#1D79BF"/>
<path d="M201.508 42.1924C201.457 42.0295 201.396 41.8666 201.345 41.7037C200.561 39.3721 199.563 37.1016 198.321 34.8922C199.502 32.5097 200.704 30.4835 202.363 28.3963C200.561 29.9235 199.013 31.8886 197.72 33.8537C197.496 33.4871 197.272 33.1206 197.038 32.754C196.275 31.5526 195.43 30.3715 194.513 29.2108C197.221 26.3091 202.923 24.4458 203.86 27.877C204.98 32.021 203.137 37.9772 201.508 42.1924Z" fill="#2496ED"/>
<path d="M203.351 32.5088C203.351 35.6346 202.577 38.7603 201.355 41.7028C200.571 39.3712 199.573 37.1007 198.331 34.8913C199.512 32.5088 200.714 30.4827 202.373 28.3954C200.571 29.9227 199.024 31.8877 197.73 33.8528C197.506 33.4862 197.283 33.1197 197.048 32.7532C198.606 30.615 200.459 28.7722 202.638 27.5605C203.127 29.1896 203.351 30.8492 203.351 32.5088Z" fill="#1D79BF"/>
<path d="M205.132 26.8383C204.471 25.3925 202.933 24.5984 201.335 24.4456C199.695 24.2929 196.173 25.0565 192.986 27.3881C192.293 26.6041 191.56 25.8202 190.797 25.0464C193.037 24.4151 195.633 23.1729 195.867 20.8719C196.498 14.3862 182.886 6.94344 169.527 10.5477C174.414 8.25686 175.891 3.46132 171.421 1.25191C163.652 -2.54583 149.408 2.86061 141.64 9.90629C142.658 7.45252 142.118 5.3042 139.532 5.11074C130.929 4.59148 118.701 17.2065 112.439 30.799C110.79 29.8012 109.089 29.0375 107.379 28.5997C101.728 27.1845 98.1338 30.0557 97.696 30.5648C94.5906 33.8229 98.4087 45.827 107.175 52.9643C106.788 62.2907 108.509 71.0876 111.329 80.0984C117.357 99.7489 143.87 128.726 175.606 118.483C190.725 113.616 195.419 101.592 199.207 88.8647C198.748 89.7811 197.415 90.9112 196.692 91.624C194.554 99.1685 188.323 114.298 175.606 118.483C147.199 127.809 120.574 99.8711 114.251 80.9943C111.472 72.4011 109.486 63.7772 109.659 54.7665C111.543 55.9781 113.579 56.9352 115.728 57.5563C101.565 50.1644 97.5127 34.4542 99.5287 32.1735L99.712 32.0411C108.377 25.9729 122.814 40.2577 126.775 50.0728C125.471 44.1369 120.554 36.7552 114.587 32.2651C120.594 18.9272 132.008 6.9638 139.41 7.18779C139.624 7.19798 139.98 7.2387 140.082 7.42197C140.856 8.52159 138.31 13.5513 137.995 14.0197C137.506 14.7324 137.17 15.4145 137.17 15.4145C138.585 14.5389 146.018 6.79071 158.745 3.33914C164.579 1.78136 171.228 2.40243 171.859 4.60166C172.439 6.7398 168.672 9.90629 167.053 11.3419C171.645 10.5477 175.769 10.4154 180.696 11.5252C188.17 13.2255 193.851 17.4814 193.586 20.6377C193.454 21.829 190.898 22.7453 189.738 23.0813C189.473 23.1628 181.979 24.3133 179.699 24.3031C177.408 24.2929 175.046 24.1096 172.846 23.6006C176.634 25.6369 183.211 26.4209 188.618 25.5249C194.167 30.3204 198.881 37.1218 200.805 44.6663C203.483 55.3367 201.62 66.0681 199.135 75.9952C199.726 76.2701 200.266 76.8199 200.724 77.4613C200.978 75.1908 206.028 59.9795 202.302 44.9921C203.778 41.0111 205.367 36.2054 205.662 32.1328C205.876 29.5364 205.468 27.551 205.132 26.8383ZM201.518 42.1922C200.703 39.6875 199.655 37.2541 198.331 34.892C199.543 32.4586 200.734 30.4528 202.373 28.3961C200.571 29.9233 199.023 31.8884 197.73 33.8535C196.783 32.2753 195.714 30.7277 194.523 29.2106C197.231 26.3089 202.933 24.4456 203.88 27.8768C204.98 32.0208 203.137 37.977 201.518 42.1922ZM112.47 50.6124C111.93 48.4437 115.697 48.0772 118.324 48.9935C116.145 46.1732 110.728 39.8504 106.289 36.2054C105.811 40.4104 108.753 46.275 112.968 47.6088C108.336 46.5703 104.518 40.1762 105.149 35.3196C103.734 34.2709 102.461 33.5786 101.504 33.4666V33.3546C103.927 33.1509 106.483 35.1771 108.265 36.5516C112.307 39.6366 116.563 44.1369 119.362 47.5783C121.348 50.0117 122.071 53.1273 121.898 53.9825C121.093 52.8116 120.452 51.7527 119.301 50.9382C118.13 50.1033 116.96 49.4008 115.514 49.1768C114.027 48.9528 112.347 49.1055 112.47 50.6124Z" fill="#2854A1"/>
<path d="M172.622 74.9271C172.785 74.9678 172.948 74.9983 173.111 75.0391C173.07 75.1103 173.03 75.1816 172.979 75.2427C170.525 75.1307 160.751 72.7991 154.53 75.4565C153.898 75.1409 153.206 74.9678 152.493 74.9271C150.538 72.5446 149.785 69.7548 149.205 67.5963C148.746 65.6313 148.186 63.4728 148.237 60.2757C148.584 45.767 158.755 36.5221 168.326 50.5727C172.409 56.5493 176.573 68.9097 172.622 74.9271Z" fill="url(#paint17_linear)"/>
<path d="M194.574 47.2129C191.794 47.2129 188.811 49.9416 187.04 52.3546C184.016 56.4985 182.407 61.4774 181.277 66.446C180.737 68.8081 180.31 71.8219 180.982 74.1433C183.018 73.9295 185.217 74.5098 187.243 75.3142C190.328 74.9069 193.352 74.6829 194.961 74.7237C200.693 64.6337 200.683 47.2434 194.574 47.2129Z" fill="url(#paint18_linear)"/>
<path d="M148.777 65.7015C145.651 49.8894 157.156 34.1385 168.336 50.5716C170.861 54.2675 172.256 57.9838 173.274 61.9139C174.272 66.1189 174.995 71.3014 172.622 74.9158C173.142 75.0278 173.661 75.1602 174.17 75.3231C178.09 69.0716 174.974 58.8492 171.217 52.4959C164.579 41.2859 154.54 38.5064 149.337 50.8058C146.333 57.9125 146.028 69.6927 151.21 75.8831C151.648 75.5471 152.137 75.2824 152.656 75.0991C150.396 72.5028 149.5 69.0105 148.777 65.7015Z" fill="#2854A1"/>
<path d="M190.145 48.1076C182.468 53.2493 177.601 67.7275 179.485 74.3049C179.984 74.1725 180.503 74.1419 181.002 74.2234C180.299 71.8918 180.727 68.8373 181.277 66.4548C182.407 61.4862 184.016 56.5074 187.039 52.3635C188.811 49.9402 191.794 47.2218 194.574 47.2218C200.744 47.2523 200.693 64.9683 194.788 75.0176C195.307 75.1296 195.816 75.3027 196.315 75.5165C202.485 64.6934 202.139 40.0437 190.145 48.1076Z" fill="#2854A1"/>
<path d="M158.419 75.357C161.208 74.6868 162.761 71.2005 161.888 67.5701C161.016 63.9398 158.048 61.5401 155.259 62.2103C152.471 62.8805 150.918 66.3668 151.791 69.9972C152.663 73.6275 155.631 76.0272 158.419 75.357Z" fill="#2854A1"/>
<path d="M160.517 66.0073C159.896 66.5876 158.928 67.5447 156.811 69.7236C155.314 69.2043 153.807 68.685 152.31 68.1759C152.29 65.7222 153.532 63.635 155.487 63.1666C157.401 62.6982 159.407 63.9099 160.517 66.0073Z" fill="#366FD6"/>
<path d="M157.708 72.3964C159.239 72.0285 160.091 70.1124 159.611 68.1168C159.132 66.1212 157.502 64.8017 155.971 65.1697C154.44 65.5376 153.588 67.4537 154.067 69.4493C154.547 71.4449 156.177 72.7644 157.708 72.3964Z" fill="#162F59"/>
<path d="M188.398 70.5708C189.061 67.5444 187.942 64.728 185.898 64.2804C183.855 63.8327 181.661 65.9233 180.998 68.9498C180.335 71.9762 181.454 74.7926 183.497 75.2402C185.541 75.6879 187.734 73.5973 188.398 70.5708Z" fill="#2854A1"/>
<path d="M187.925 68.0338C186.836 68.7058 185.746 69.3676 184.616 69.9785C183.812 69.0622 183.058 68.1051 182.346 67.1175C184.168 64.0223 187.375 64.5416 187.925 68.0338Z" fill="#366FD6"/>
<path d="M186.448 70.1439C186.762 68.7103 186.233 67.3765 185.266 67.1647C184.299 66.9529 183.261 67.9434 182.947 69.3769C182.633 70.8105 183.162 72.1443 184.129 72.3561C185.096 72.5679 186.134 71.5775 186.448 70.1439Z" fill="#162F59"/>
<path d="M160.069 69.765C160.957 69.765 161.677 68.6345 161.677 67.2399C161.677 65.8454 160.957 64.7148 160.069 64.7148C159.18 64.7148 158.46 65.8454 158.46 67.2399C158.46 68.6345 159.18 69.765 160.069 69.765Z" fill="white"/>
<path d="M187.253 70.6295C188.035 70.6295 188.668 69.6951 188.668 68.5423C188.668 67.3896 188.035 66.4551 187.253 66.4551C186.472 66.4551 185.838 67.3896 185.838 68.5423C185.838 69.6951 186.472 70.6295 187.253 70.6295Z" fill="white"/>
<path d="M146.761 38.8022C145.926 40.1768 143.981 39.179 144.44 37.6314C145.753 33.1107 152.188 31.0744 154.55 30.9929C158.969 30.8402 163.245 33.3551 164.772 37.5194L164.681 37.5804C161.687 34.1085 158.969 32.8052 154.876 33.1311C151.333 33.6096 148.584 35.8292 146.761 38.8022Z" fill="#2854A1"/>
<path d="M188.251 39.719C191.031 34.1089 197.272 36.135 198.433 38.7415C198.443 38.7619 198.453 38.7924 198.463 38.8128C198.667 39.4237 197.924 39.9124 197.415 39.5153C194.961 37.6114 191.377 36.5932 188.251 39.719Z" fill="#2854A1"/>
<path d="M193.617 92.8974C192.721 93.1418 191.672 93.2436 190.542 93.2436C187.773 93.2436 184.321 92.592 181.745 91.7164C179.047 93.1112 176.054 94.3127 173.05 95.0865C172.561 95.2087 172.083 95.3207 171.594 95.4225C171.584 95.4225 171.574 95.4225 171.564 95.4326C171.441 95.453 171.329 95.4836 171.207 95.5039C159.447 97.8151 150.365 91.8589 148.217 84.6809C146.731 79.5799 148.553 75.7821 153.909 74.5807C159.101 73.4302 169.731 74.428 175.819 75.212C175.209 75.609 175.025 76.0469 175.086 76.6374C172.887 76.1589 169.853 75.6396 165.78 75.273C158.674 74.6825 149.327 74.8861 150.019 81.9522C150.64 88.8757 158.378 94.1599 166.045 94.1905C167.511 94.2007 169.171 94.0174 170.953 93.6203C171.166 93.5694 171.37 93.5185 171.584 93.4676C171.716 93.4371 171.838 93.4065 171.971 93.3658C172.012 93.3556 172.052 93.3454 172.093 93.3352C172.103 93.3352 172.123 93.3251 172.134 93.3251C175.076 92.5207 178.283 91.1258 181.47 89.0182L182.112 89.2422C184.82 90.4946 188.455 91.3091 190.654 91.3905C190.766 91.4007 191.866 91.4618 192.833 91.3091C197.028 90.6066 201.721 86.6459 201.803 81.9318C201.915 76.841 198.066 75.8432 192.935 75.8025C191.927 75.8025 190.888 75.8738 189.85 75.9858C189.778 75.5072 189.687 75.1814 188.465 74.8149C194.798 74.4178 201.671 74.9981 202.811 80.1908C204.134 86.147 198.881 91.4822 193.617 92.8974Z" fill="#2854A1"/>
<path d="M201.813 81.9121C201.721 86.9825 196.203 91.5134 191.092 91.3912C191.01 91.3912 190.898 91.381 190.898 91.381C190.583 91.3708 189.87 91.3199 189.31 91.2486C189.259 91.2385 189.208 91.2385 189.157 91.2283C186.765 90.9025 184.097 90.1388 182.122 89.2225L181.48 88.9985C178.294 91.0959 175.076 92.4908 172.144 93.3053C172.134 93.3053 172.113 93.3155 172.103 93.3155C172.062 93.3257 172.022 93.3359 171.981 93.346C171.859 93.3766 171.726 93.4071 171.594 93.4479C171.38 93.4988 171.166 93.5497 170.963 93.6006C170.963 93.6006 170.963 93.6006 170.963 93.6108C169.181 94.018 167.521 94.1911 166.055 94.1809C158.389 94.1504 150.661 88.8661 150.029 81.9427C149.337 74.8766 158.684 74.673 165.791 75.2635C168.916 75.5486 172.073 75.9763 175.097 76.6279C175.321 78.8271 179.108 82.2888 183.272 82.2888C187.213 82.2888 190.206 78.1042 189.87 75.9559C190.909 75.8439 191.917 75.7726 192.955 75.7726C198.076 75.8235 201.915 76.8213 201.813 81.9121Z" fill="url(#paint19_linear)" stroke="black" stroke-miterlimit="10"/>
<path d="M190.216 93.2327C188.445 97.5803 187.019 99.138 185.848 100.197C184.871 101.083 184.189 101.582 182.875 101.571C181.888 101.561 180.859 101.195 179.963 100.838L180.004 100.747C180.34 100.889 180.676 101.001 181.032 101.073C181.643 101.195 182.244 101.195 182.835 101.062C183.486 100.91 184.046 100.706 185.156 99.4944C185.553 99.0566 185.971 98.6391 186.581 97.6108C187.335 96.3279 188.017 94.6988 188.557 93.1309C189.117 93.1919 189.677 93.2225 190.216 93.2327Z" fill="#2854A1"/>
<path d="M189.147 91.2266C189.362 91.2572 189.341 91.2572 189.147 91.2266V91.2266Z" fill="#2854A1"/>
<path d="M188.546 93.1416C187.956 94.8826 187.029 97.1328 185.93 98.599C185.696 98.9146 185.553 99.0571 185.36 99.2709C185.064 99.5968 184.728 99.9735 184.311 100.32C184.016 100.564 183.741 100.747 183.384 100.9C183.16 100.992 182.712 101.114 182.244 101.155C181.47 101.216 180.727 101.043 180.004 100.747C179.973 100.737 179.882 100.696 179.831 100.676L179.8 100.696C178.691 101.653 177.133 101.898 175.88 101.44C174.944 101.083 174.221 100.371 173.865 99.6069C173.702 99.2608 173.641 99.0164 173.579 98.7313C173.315 97.5401 173.142 96.3081 173.04 95.0761C175.789 94.3735 178.487 93.3146 181.002 92.0725C180.981 94.4754 180.757 96.5728 180.289 98.9553L180.391 98.9859C181.226 96.5626 181.765 94.3939 182.132 91.8281C183.934 92.4187 186.286 92.9379 188.546 93.1416Z" fill="#A6A6A7"/>
<path d="M188.333 93.7731C187.834 95.1374 187.243 96.5119 186.581 97.6217C186.378 97.9679 186.164 98.2937 185.93 98.5992C185.818 98.7519 185.696 98.9046 185.563 99.0471C185.502 99.1184 185.431 99.1999 185.36 99.2711L185.156 99.4951C184.881 99.8006 184.606 100.075 184.321 100.32C184.179 100.442 184.026 100.554 183.873 100.656C183.72 100.747 183.557 100.839 183.384 100.91C183.221 100.982 183.018 101.033 182.835 101.073C182.641 101.114 182.448 101.145 182.244 101.165C181.847 101.195 181.43 101.165 181.032 101.083C180.686 101.012 180.34 100.9 180.004 100.758C179.953 100.737 179.912 100.717 179.862 100.697L179.831 100.686C179.098 101.338 178.12 101.705 176.99 101.674C175.931 101.297 175.209 100.686 174.71 98.9351C174.425 97.9374 174.302 96.8785 174.343 95.8501C174.353 95.6363 174.374 95.4123 174.394 95.1985C176.329 94.7505 179.271 93.5491 180.992 92.3477C180.961 94.6487 180.737 96.685 180.289 98.9861L180.391 99.0166C180.432 98.9046 180.472 98.7926 180.503 98.6704C180.493 98.7315 180.493 98.7824 180.483 98.8435C181.521 96.7868 182.58 94.6589 183.13 92.4189C184.596 92.928 186.785 93.6611 188.333 93.7731Z" fill="white"/>
<path d="M183.262 82.2975C178.762 82.2975 174.72 78.2656 175.097 76.1478C175.636 73.1239 188.923 73.8875 189.717 75.4758C190.674 77.4103 187.528 82.2975 183.262 82.2975Z" fill="#162F59"/>
<path d="M183.934 79.5895C180.187 79.5895 176.817 77.146 177.133 75.8631C177.581 74.0304 188.648 74.4886 189.31 75.4558C190.114 76.6267 187.488 79.5895 183.934 79.5895Z" fill="#2854A1"/>
<path d="M182.132 91.8394C181.776 94.4051 181.236 96.5738 180.391 98.997L180.289 98.9664C180.758 96.584 180.982 94.4866 181.002 92.0837C181.246 91.9616 181.501 91.8394 181.745 91.707C181.867 91.7579 182 91.7987 182.132 91.8394Z" fill="#2854A1"/>
<path d="M179.108 101.399C177.561 103.516 175.219 105.868 172.602 105.868C167.97 105.868 165.679 100.167 163.887 95.9414C164.416 95.9923 164.935 96.0229 165.465 96.033C166.748 100.126 169.171 104.402 173.488 104.402C175.341 104.402 176.736 103.211 177.632 102.091C178.528 101.796 178.935 101.47 179.108 101.399Z" fill="#2854A1"/>
<path d="M176.766 107.569C175.045 109.961 171.207 111.651 168.183 110.979C167.144 110.755 166.401 110.297 165.597 109.635C163.163 107.63 161.565 104.188 162.247 101.062C162.502 102.793 163.031 104.331 164.009 105.817C164.874 107.131 165.923 108.22 167.216 109.096C169.598 110.643 173.946 109.564 176.766 107.569Z" fill="#2854A1"/>
<path d="M171.971 93.3555C171.839 93.386 171.716 93.4267 171.584 93.4573C171.716 93.4267 171.839 93.386 171.971 93.3555Z" fill="#2854A1"/>
<path d="M180.004 100.758L179.963 100.849C179.923 100.839 179.892 100.819 179.851 100.808C179.607 101.032 179.332 101.236 179.047 101.419C178.721 101.633 178.365 101.816 177.988 101.959C177.224 102.254 176.471 102.417 175.677 102.315C174.496 102.183 173.355 101.491 172.622 100.31C172.378 99.9124 172.246 99.5968 172.103 99.159C171.94 98.6703 171.798 98.1816 171.665 97.6725C171.482 96.9598 171.329 96.2267 171.207 95.4936C171.329 95.4733 171.441 95.4427 171.563 95.4223C171.574 95.4223 171.584 95.4223 171.594 95.4122C172.083 95.3103 172.571 95.1984 173.05 95.0762C173.233 97.2347 173.59 98.8332 173.702 99.1895C173.834 99.6172 174.058 100.014 174.363 100.36C175.025 101.134 175.952 101.592 176.848 101.643C177.184 101.664 177.54 101.653 177.886 101.592C178.579 101.47 179.251 101.165 179.8 100.686L179.831 100.666C179.882 100.696 179.973 100.737 180.004 100.758Z" fill="#2854A1"/>
<path d="M171.584 93.457C171.37 93.5181 171.156 93.569 170.953 93.6098C170.953 93.6098 170.953 93.6098 170.953 93.5996C171.156 93.5588 171.37 93.5079 171.584 93.457Z" fill="#2854A1"/>
<path d="M177.632 102.082C176.573 103.405 175.168 104.393 173.488 104.393C170.291 104.393 168.122 102.041 166.707 99.1697C166.452 98.6504 166.218 98.1108 166.004 97.5712C165.76 96.9399 165.516 96.217 165.444 95.9727C166.636 96.1967 169.68 95.7996 171.207 95.4941C171.207 95.5043 171.207 95.5247 171.217 95.5349C171.339 96.2578 171.492 96.9705 171.675 97.673C171.818 98.233 172.113 99.241 172.327 99.7399C172.582 100.31 172.968 100.85 173.447 101.287C174.496 102.245 175.972 102.642 177.632 102.082Z" fill="#331B19"/>
<path d="M172.449 104.31C169.191 103.75 167.185 100.624 166.004 97.5801C169.273 98.0383 171.676 101.083 172.449 104.31Z" fill="#B7434A"/>
<defs>
<linearGradient id="paint0_linear" x1="225.369" y1="45.8922" x2="225.369" y2="145.217" gradientUnits="userSpaceOnUse">
<stop stop-color="#81AAC9"/>
<stop offset="0.027913" stop-color="#CECED7"/>
<stop offset="1" stop-color="#81AAC9"/>
</linearGradient>
<linearGradient id="paint1_linear" x1="212.275" y1="111.366" x2="223.912" y2="121.131" gradientUnits="userSpaceOnUse">
<stop stop-color="#4E7694"/>
<stop offset="0.1204" stop-color="#527997"/>
<stop offset="0.1745" stop-color="#567D9A"/>
<stop offset="0.2469" stop-color="#5B819E"/>
<stop offset="0.3334" stop-color="#6A8DA9"/>
<stop offset="0.3659" stop-color="#7193AE"/>
<stop offset="0.4894" stop-color="#7A9BB5"/>
<stop offset="0.5908" stop-color="#85A4BD"/>
<stop offset="1" stop-color="#95B3CD"/>
</linearGradient>
<linearGradient id="paint2_linear" x1="17.9341" y1="211.859" x2="39.9797" y2="86.8322" gradientUnits="userSpaceOnUse">
<stop offset="0.2341" stop-color="white"/>
<stop offset="0.4908" stop-color="#B9B9C1"/>
<stop offset="0.7715" stop-color="white"/>
</linearGradient>
<linearGradient id="paint3_linear" x1="31.366" y1="123.703" x2="31.366" y2="177.425" gradientUnits="userSpaceOnUse">
<stop offset="0.1448" stop-color="#2496ED"/>
<stop offset="0.1664" stop-color="#258EE3"/>
<stop offset="0.2721" stop-color="#2768B9"/>
<stop offset="0.3676" stop-color="#294D9A"/>
<stop offset="0.4485" stop-color="#2A3D88"/>
<stop offset="0.5055" stop-color="#2A3781"/>
<stop offset="0.5554" stop-color="#293F8A"/>
<stop offset="0.6373" stop-color="#2855A3"/>
<stop offset="0.7404" stop-color="#2678CB"/>
<stop offset="0.8172" stop-color="#2496ED"/>
</linearGradient>
<linearGradient id="paint4_linear" x1="25.3247" y1="137.365" x2="54.8672" y2="120.309" gradientUnits="userSpaceOnUse">
<stop stop-color="#089ED6"/>
<stop offset="0.5055" stop-color="#2496ED"/>
<stop offset="1" stop-color="#2A3781"/>
</linearGradient>
<linearGradient id="paint5_linear" x1="69.851" y1="222.419" x2="119.854" y2="222.419" gradientUnits="userSpaceOnUse">
<stop stop-color="#089ED6"/>
<stop offset="0.5055" stop-color="#2496ED"/>
<stop offset="1" stop-color="#2A3781"/>
</linearGradient>
<radialGradient id="paint6_radial" cx="0" cy="0" r="1" gradientUnits="userSpaceOnUse" gradientTransform="translate(112.303 164.671) scale(43.9888)">
<stop stop-color="#089ED6"/>
<stop offset="0.5209" stop-color="#2496ED"/>
<stop offset="1" stop-color="#2A3781"/>
</radialGradient>
<linearGradient id="paint7_linear" x1="241.159" y1="120.104" x2="256.343" y2="120.104" gradientUnits="userSpaceOnUse">
<stop stop-color="#089ED6"/>
<stop offset="0.5055" stop-color="#2496ED"/>
<stop offset="1" stop-color="#2A3781"/>
</linearGradient>
<linearGradient id="paint8_linear" x1="234.856" y1="125.738" x2="252.758" y2="125.738" gradientUnits="userSpaceOnUse">
<stop stop-color="#089ED6"/>
<stop offset="0.5055" stop-color="#2496ED"/>
<stop offset="1" stop-color="#2A3781"/>
</linearGradient>
<linearGradient id="paint9_linear" x1="226.347" y1="138.318" x2="246.347" y2="138.318" gradientUnits="userSpaceOnUse">
<stop stop-color="#089ED6"/>
<stop offset="0.5055" stop-color="#2496ED"/>
<stop offset="1" stop-color="#2A3781"/>
</linearGradient>
<radialGradient id="paint10_radial" cx="0" cy="0" r="1" gradientUnits="userSpaceOnUse" gradientTransform="translate(224.165 133.989) scale(6.19458 6.19441)">
<stop stop-color="#2496ED"/>
<stop offset="0.3752" stop-color="#2581D5"/>
<stop offset="0.7156" stop-color="#276ABB"/>
<stop offset="0.864" stop-color="#2855A3"/>
<stop offset="1" stop-color="#2A3781"/>
</radialGradient>
<linearGradient id="paint11_linear" x1="236.235" y1="81.3629" x2="248.278" y2="81.3629" gradientUnits="userSpaceOnUse">
<stop stop-color="#089ED6"/>
<stop offset="0.5055" stop-color="#2496ED"/>
<stop offset="1" stop-color="#2A3781"/>
</linearGradient>
<linearGradient id="paint12_linear" x1="237.123" y1="51.0301" x2="239.971" y2="51.0301" gradientUnits="userSpaceOnUse">
<stop stop-color="#4E7694"/>
<stop offset="0.1204" stop-color="#527997"/>
<stop offset="0.1745" stop-color="#567D9A"/>
<stop offset="0.2469" stop-color="#5B819E"/>
<stop offset="0.3334" stop-color="#6A8DA9"/>
<stop offset="0.3659" stop-color="#7193AE"/>
<stop offset="0.4894" stop-color="#7A9BB5"/>
<stop offset="0.5908" stop-color="#85A4BD"/>
<stop offset="1" stop-color="#95B3CD"/>
</linearGradient>
<linearGradient id="paint13_linear" x1="234.466" y1="75.7711" x2="237.629" y2="76.1036" gradientUnits="userSpaceOnUse">
<stop stop-color="#4E7694"/>
<stop offset="0.1204" stop-color="#527997"/>
<stop offset="0.1745" stop-color="#567D9A"/>
<stop offset="0.2469" stop-color="#5B819E"/>
<stop offset="0.3334" stop-color="#6A8DA9"/>
<stop offset="0.3659" stop-color="#7193AE"/>
<stop offset="0.4894" stop-color="#7A9BB5"/>
<stop offset="0.5908" stop-color="#85A4BD"/>
<stop offset="1" stop-color="#95B3CD"/>
</linearGradient>
<linearGradient id="paint14_linear" x1="218.635" y1="44.1554" x2="218.635" y2="146.983" gradientUnits="userSpaceOnUse">
<stop stop-color="#089ED6"/>
<stop offset="0.5055" stop-color="#2496ED"/>
<stop offset="1" stop-color="#2A3781"/>
</linearGradient>
<linearGradient id="paint15_linear" x1="110.096" y1="178.245" x2="61.7234" y2="178.245" gradientUnits="userSpaceOnUse">
<stop stop-color="#089ED6"/>
<stop offset="0.5055" stop-color="#2496ED"/>
<stop offset="1" stop-color="#2A3781"/>
</linearGradient>
<radialGradient id="paint16_radial" cx="0" cy="0" r="1" gradientUnits="userSpaceOnUse" gradientTransform="translate(150.59 61.3843) scale(55.355)">
<stop stop-color="#089ED6"/>
<stop offset="0.5055" stop-color="#2496ED"/>
<stop offset="1" stop-color="#2A3781"/>
</radialGradient>
<linearGradient id="paint17_linear" x1="148.085" y1="56.3395" x2="176.197" y2="66.5716" gradientUnits="userSpaceOnUse">
<stop stop-color="white"/>
<stop offset="0.6942" stop-color="white"/>
<stop offset="1" stop-color="#B9B9C1"/>
</linearGradient>
<linearGradient id="paint18_linear" x1="183.468" y1="59.0191" x2="199.01" y2="64.6758" gradientUnits="userSpaceOnUse">
<stop stop-color="white"/>
<stop offset="0.6942" stop-color="white"/>
<stop offset="1" stop-color="#B9B9C1"/>
</linearGradient>
<linearGradient id="paint19_linear" x1="149.983" y1="84.6196" x2="201.811" y2="84.6196" gradientUnits="userSpaceOnUse">
<stop stop-color="#B9B9C1"/>
<stop offset="0.1981" stop-color="white"/>
<stop offset="0.548" stop-color="white"/>
<stop offset="0.6325" stop-color="#B9B9C1"/>
<stop offset="0.7147" stop-color="white"/>
<stop offset="0.9086" stop-color="white"/>
<stop offset="1" stop-color="#B9B9C1"/>
</linearGradient>
</defs>
</svg>
