<svg xmlns="http://www.w3.org/2000/svg" xmlns:xlink="http://www.w3.org/1999/xlink" width="3060.526" height="1105.263" xmlns:v="https://vecta.io/nano"><g fill="#fff"><path d="M1095.399 351.225q-28.483 0-44.108 21.484-15.625 21.322-15.625 59.57 0 79.59 59.733 79.59 25.065 0 60.71-12.533v42.318q-29.297 12.207-65.43 12.207-51.921 0-79.427-31.413-27.507-31.575-27.507-90.495 0-37.109 13.509-64.941 13.509-27.995 38.737-42.806 25.391-14.974 59.408-14.974 34.668 0 69.661 16.764l-16.276 41.016q-13.346-6.348-26.855-11.068-13.509-4.72-26.53-4.72zm146.81 108.073q0 27.018 8.789 40.853 8.952 13.835 28.971 13.835 19.857 0 28.483-13.672 8.789-13.835 8.789-41.016 0-27.018-8.789-40.527-8.789-13.509-28.809-13.509-19.857 0-28.646 13.509-8.789 13.346-8.789 40.527zm125.814 0q0 44.434-23.437 69.499-23.437 25.065-65.267 25.065-26.204 0-46.224-11.393-20.02-11.556-30.762-33.04-10.742-21.484-10.742-50.13 0-44.596 23.275-69.336 23.275-24.74 65.43-24.74 26.204 0 46.224 11.393 20.02 11.393 30.762 32.715 10.742 21.322 10.742 49.967zm98.632 94.564q-32.064 0-50.456-24.902-18.229-24.902-18.229-69.01 0-44.759 18.555-69.661 18.717-25.065 51.432-25.065 34.342 0 52.409 26.693h1.628q-3.744-20.345-3.744-36.296v-58.268h49.805v253.255h-38.086l-9.603-23.6h-2.116q-16.927 26.855-51.595 26.855zm17.415-39.551q19.043 0 27.832-11.068 8.952-11.068 9.766-37.598v-5.371q0-29.297-9.114-41.992-8.952-12.695-29.297-12.695-16.601 0-25.879 14.16-9.114 13.997-9.114 40.853 0 26.855 9.277 40.365 9.277 13.346 26.53 13.346zm211.263-113.769q-15.788 0-24.74 10.091-8.952 9.928-10.254 28.32H1730q-.325-18.392-9.603-28.32-9.277-10.091-25.065-10.091zm6.999 153.32q-43.945 0-68.685-24.251-24.74-24.251-24.74-68.685 0-45.736 22.786-70.638 22.949-25.065 63.314-25.065 38.574 0 60.059 21.973 21.484 21.973 21.484 60.71v24.089H1659.2q.814 21.159 12.533 33.04 11.719 11.881 32.878 11.881 16.439 0 31.087-3.418 14.649-3.418 30.599-10.905v38.411q-13.021 6.51-27.832 9.603-14.811 3.255-36.133 3.255zm329.915-3.255h-64.128l-103.515-180.013h-1.465q3.092 47.689 3.092 68.034v111.979h-45.085V312.651h63.639l103.353 178.222h1.139q-2.441-46.387-2.441-65.592v-112.63h45.41zm95.377-91.309q0 27.018 8.789 40.853 8.952 13.835 28.971 13.835 19.857 0 28.483-13.672 8.789-13.835 8.789-41.016 0-27.018-8.789-40.527-8.789-13.509-28.809-13.509-19.857 0-28.646 13.509-8.789 13.346-8.789 40.527zm125.814 0q0 44.434-23.437 69.499-23.437 25.065-65.267 25.065-26.204 0-46.224-11.393-20.019-11.556-30.762-33.04-10.742-21.484-10.742-50.13 0-44.596 23.275-69.336 23.275-24.74 65.43-24.74 26.204 0 46.224 11.393 20.019 11.393 30.762 32.715 10.742 21.322 10.742 49.967zm117.676 55.013q13.021 0 31.25-5.697v36.947q-18.555 8.301-45.573 8.301-29.785 0-43.457-14.974-13.509-15.137-13.509-45.247v-87.728h-23.763v-20.996l27.344-16.602 14.323-38.411h31.738v38.737h50.944v37.272h-50.944v87.728q0 10.579 5.859 15.625 6.022 5.046 15.788 5.046zm183.43 36.296l-9.603-24.74h-1.302q-12.533 15.788-25.879 21.973-13.184 6.022-34.505 6.022-26.204 0-41.341-14.974-14.974-14.974-14.974-42.643 0-28.971 20.182-42.643 20.345-13.835 61.198-15.299l31.575-.977v-7.975q0-27.669-28.32-27.669-21.81 0-51.269 13.184l-16.439-33.529q31.413-16.439 69.661-16.439 36.621 0 56.152 15.951 19.531 15.95 19.531 48.503v121.256zm-14.648-84.31l-19.206.651q-21.647.651-32.227 7.813-10.579 7.161-10.579 21.81 0 20.996 24.089 20.996 17.253 0 27.506-9.928 10.417-9.928 10.417-26.367zm201.823-101.074q10.091 0 16.764 1.465l-3.744 46.549q-6.022-1.628-14.648-1.628-23.763 0-37.109 12.207-13.184 12.207-13.184 34.18v92.611h-49.642V368.641h37.598l7.324 30.599h2.441q8.463-15.299 22.786-24.577 14.486-9.44 31.413-9.44zm24.088 3.418h54.362l34.342 102.376q4.394 13.346 6.022 31.575h.977q1.79-16.764 6.999-31.575l33.691-102.376h53.223l-76.986 205.241q-10.579 28.483-30.273 42.643-19.531 14.16-45.736 14.16-12.858 0-25.228-2.767V588.53q8.952 2.116 19.531 2.116 13.184 0 22.949-8.138 9.928-7.975 15.462-24.251l2.93-8.952zM492.239 166.813c-213.254 0-386.131 172.877-386.131 386.131s172.877 386.131 386.131 386.131c213.162-.223 385.908-172.969 386.131-386.131 0-213.254-172.877-386.131-386.131-386.131zm0 16.861c203.849.223 369.045 165.421 369.268 369.27 0 203.942-165.327 369.268-369.268 369.268s-369.27-165.327-369.27-369.268 165.328-369.27 369.27-369.27zm-.001 713.042a347.3 347.3 0 0 1-59.521-5.16 8.43 8.43 0 1 1 2.9-16.592 331.71 331.71 0 0 0 113.546 0 8.44 8.44 0 0 1 9.763 6.863 8.44 8.44 0 0 1-6.863 9.763 347.35 347.35 0 0 1-59.825 5.126zm-167.503-44.784c-1.478-.001-2.93-.385-4.215-1.113a344.58 344.58 0 0 1-91.322-76.72 8.44 8.44 0 0 1 1.029-11.887 8.44 8.44 0 0 1 11.887 1.029c24.475 29.197 53.863 53.894 86.837 72.977a8.43 8.43 0 0 1-4.215 15.715zm335.276 0a8.43 8.43 0 0 1-4.249-15.749 326.9 326.9 0 0 0 86.938-73.011 8.43 8.43 0 1 1 12.916 10.825 344.55 344.55 0 0 1-91.39 76.653c-1.279.749-2.734 1.145-4.215 1.147zM177.162 676.571a8.43 8.43 0 0 1-7.925-5.598 342.46 342.46 0 0 1-20.74-117.525 8.4 8.4 0 0 1 2.447-5.959c1.575-1.582 3.717-2.471 5.95-2.471 4.649.017 8.412 3.782 8.431 8.431a325.7 325.7 0 0 0 19.728 111.759c1.584 4.367-.663 9.193-5.025 10.791a8.15 8.15 0 0 1-2.866.405zm630.287-.337c-.99.017-1.974-.156-2.9-.506-2.106-.753-3.824-2.318-4.768-4.346s-1.037-4.349-.257-6.446a326.14 326.14 0 0 0 19.627-111.995v-.742c0-4.656 3.775-8.431 8.431-8.431s8.431 3.775 8.431 8.431v.742c.05 40.103-6.936 79.904-20.639 117.593-1.226 3.319-4.387 5.524-7.925 5.531zM176.926 447.018a8.43 8.43 0 0 1-7.925-11.331 343.03 343.03 0 0 1 59.623-103.395 8.44 8.44 0 0 1 12.95 10.825c-24.522 29.203-43.722 62.488-56.722 98.337a8.43 8.43 0 0 1-7.925 5.564zm630.287-1.012a8.4 8.4 0 0 1-7.925-5.531c-13.106-35.785-32.397-68.99-56.992-98.101-1.946-2.319-2.506-5.5-1.471-8.345a8.47 8.47 0 0 1 6.492-5.446c2.982-.525 6.017.58 7.962 2.899a342.5 342.5 0 0 1 59.926 103.193c1.61 4.367-.624 9.213-4.991 10.825a8.89 8.89 0 0 1-3.001.506zM324.162 271.151a8.43 8.43 0 0 1-4.215-15.715 339.66 339.66 0 0 1 112.096-41.007 8.44 8.44 0 0 1 2.934 16.626 323.27 323.27 0 0 0-106.565 38.95c-1.29.75-2.756 1.146-4.249 1.147zm335.242-.506a8.23 8.23 0 0 1-4.182-1.147 324.62 324.62 0 0 0-106.734-38.647c-4.396-.981-7.244-5.244-6.469-9.68s4.901-7.48 9.369-6.912a340.2 340.2 0 0 1 112.231 40.468 8.43 8.43 0 0 1-4.215 15.749zM492.238 851.898c-165.109 0-298.956-133.847-298.956-298.956s133.847-298.956 298.956-298.956 298.956 133.847 298.956 298.956c-.186 165.032-133.924 298.77-298.956 298.956zm0-581.051c-155.797 0-282.095 126.298-282.095 282.095s126.298 282.095 282.095 282.095 282.095-126.298 282.095-282.095c-.167-155.727-126.367-281.927-282.095-282.095zM476.321 637.25a9.46 9.46 0 0 1-2.158-.27 93.38 93.38 0 0 1-48.258-149.191v-.202a87.21 87.21 0 0 1 6.205-6.745l75.304-75.135c23.59-23.59 57.974-32.803 90.199-24.169a93.38 93.38 0 0 1 41.861 156.229l-75.102 75.102a80.53 80.53 0 0 1-7.082 6.407 8.43 8.43 0 0 1-11.769-11.938 76.65 76.65 0 0 0 14.568-68.121 8.43 8.43 0 0 1 2.158-8.127l35.274-35.274c12.797-13.381 12.561-34.533-.531-47.625s-34.244-13.328-47.625-.531l-75.102 75.102c-1.667 1.639-3.159 3.448-4.451 5.396-8.87 13.51-7.036 31.392 4.392 42.82s29.31 13.262 42.82 4.392a8.43 8.43 0 0 1 11.635 11.702 53.15 53.15 0 0 1-6.542 8.026l-39.827 39.793a8.47 8.47 0 0 1-5.969 2.361zm-37.5-138.602c-15.73 19.491-20.936 45.443-13.938 69.493a76.59 76.59 0 0 0 49.044 51.169l21.751-21.751a50.89 50.89 0 0 1-39.928-78.777 53.96 53.96 0 0 1 6.576-8.06l75.102-75c19.891-19.891 52.141-19.891 72.033 0s19.891 52.141 0 72.033l-31.936 31.902c1.35 6.375 2.028 12.874 2.023 19.391.01 5.451-.477 10.891-1.45 16.255l49.472-49.337c29.921-29.921 29.921-78.432 0-108.353s-78.432-29.921-108.353 0l-75.102 75.102a69.03 69.03 0 0 0-5.126 5.699z"/><use xlink:href="#B"/><use xlink:href="#C"/><use xlink:href="#B"/><use xlink:href="#C"/><path d="M411.033 727.493a93.35 93.35 0 0 1-66.03-159.376l75.102-75.102a80.53 80.53 0 0 1 7.082-6.407 8.43 8.43 0 0 1 11.769 11.938 76.79 76.79 0 0 0-14.568 68.121 8.43 8.43 0 0 1-2.158 8.127l-35.274 35.274c-12.797 13.381-12.561 34.533.531 47.625s34.244 13.328 47.625.531l75.102-74.933c1.667-1.639 3.159-3.448 4.451-5.396 3.62-5.572 5.553-12.072 5.564-18.716a34.13 34.13 0 0 0-52.811-28.462 8.43 8.43 0 0 1-11.635-11.702 53.15 53.15 0 0 1 6.542-8.026l40.029-39.996a8.43 8.43 0 0 1 8.127-2.192 93.38 93.38 0 0 1 48.258 149.191v.202c-1.949 2.355-4.02 4.607-6.205 6.745l-75.473 75.236c-17.497 17.531-41.262 27.362-66.03 27.316zm-4.62-196.943l-49.506 49.371c-29.241 30.002-28.933 77.937.691 107.561s77.559 29.932 107.561.691l75.102-75.102c1.813-1.803 3.524-3.706 5.126-5.699l.27-.337c15.73-19.491 20.936-45.443 13.938-69.493s-25.312-43.158-49.044-51.169l-21.684 21.853a50.89 50.89 0 0 1 39.928 78.777 53.96 53.96 0 0 1-6.576 8.06l-75.169 75.102c-19.891 19.891-52.141 19.891-72.033 0s-19.891-52.141 0-72.033l31.936-31.902c-2.47-11.748-2.653-23.862-.54-35.679z"/><use xlink:href="#D"/><use xlink:href="#E"/><use xlink:href="#D"/><use xlink:href="#E"/></g><defs ><path id="B" d="M498.443 597.726a50.89 50.89 0 0 1-42.694-78.845 8.33 8.33 0 0 1 2.428-2.428c15.654-10.273 35.682-11.133 52.159-2.239s26.75 26.107 26.753 44.832a51.26 51.26 0 0 1-8.363 27.923 8.33 8.33 0 0 1-2.428 2.428c-8.27 5.443-17.955 8.339-27.855 8.33zm-29.508-68.087c-7.798 13.374-5.607 30.323 5.336 41.274s27.89 13.154 41.27 5.366a34.6 34.6 0 0 0 4.688-17.233 34.13 34.13 0 0 0-51.293-29.407z"/><path id="C" d="M568.216 545.456a8.36 8.36 0 0 1-2.192-.27 8.43 8.43 0 0 1-5.935-5.969 76.72 76.72 0 0 0-54.126-54.126 8.43 8.43 0 0 1-3.608-14.096l35.072-35.274c19.891-19.891 52.141-19.891 72.033 0s19.891 52.141 0 72.033l-35.274 35.241c-1.576 1.593-3.729 2.481-5.969 2.462zm-44.65-71.999a93.92 93.92 0 0 1 48.157 48.157l25.798-25.798a34.06 34.06 0 0 0-14.97-57.58 34.06 34.06 0 0 0-33.186 9.424z"/><path id="D" d="M498.443 597.726a50.89 50.89 0 0 1-42.694-78.845 8.33 8.33 0 0 1 2.428-2.428 50.96 50.96 0 0 1 70.549 70.549 8.33 8.33 0 0 1-2.428 2.428c-8.274 5.431-17.959 8.315-27.855 8.296zm-29.508-68.087c-7.798 13.374-5.607 30.323 5.336 41.274s27.89 13.154 41.27 5.366c3.06-5.241 4.677-11.198 4.688-17.266a34.13 34.13 0 0 0-51.293-29.373z"/><path id="E" d="M411.033 685.036c-20.587-.007-39.145-12.408-47.027-31.426s-3.537-40.912 11.01-55.479l35.274-35.072c2.121-2.146 5.231-2.99 8.146-2.209s5.187 3.066 5.95 5.986a76.72 76.72 0 0 0 54.126 54.126 8.43 8.43 0 0 1 3.777 14.096l-35.241 35.106a50.82 50.82 0 0 1-36.016 14.872zm1.72-100.765l-25.798 25.798c-12.797 13.381-12.561 34.533.531 47.625s34.244 13.328 47.625.531l25.798-25.798a93.92 93.92 0 0 1-48.157-48.157z"/></defs></svg>