<svg xmlns="http://www.w3.org/2000/svg" xmlns:xlink="http://www.w3.org/1999/xlink" width="2757.942" height="872.261" xmlns:v="https://vecta.io/nano"><g fill="#fff"><path d="M925.084 279.795q0-31.818 35.448-31.818 35.448 0 35.448 31.818 0 15.161-8.969 23.703-8.755 8.328-26.479 8.328-35.448 0-35.448-32.031zm67.906 300.453h-65.13V341.509h65.13zm281.875 0h-65.13V440.806q0-25.839-8.755-38.651-8.542-13.026-27.12-13.026-24.984 0-36.302 18.365-11.318 18.365-11.318 60.432v112.323h-65.13v-238.74h49.755l8.755 30.536h3.63q9.609-16.443 27.76-25.625 18.151-9.396 41.641-9.396 53.599 0 72.604 35.021h5.766q9.609-16.656 28.188-25.839 18.792-9.182 42.281-9.182 40.573 0 61.286 20.927 20.927 20.714 20.927 66.625v155.672h-65.344V440.806q0-25.839-8.755-38.651-8.542-13.026-27.12-13.026-23.917 0-35.875 17.083-11.745 17.083-11.745 54.24zm429.646 0h-65.13V440.806q0-25.839-8.755-38.651-8.542-13.026-27.12-13.026-24.984 0-36.302 18.365-11.318 18.365-11.318 60.432v112.323h-65.13v-238.74h49.755l8.755 30.536h3.63q9.609-16.443 27.76-25.625 18.151-9.396 41.64-9.396 53.599 0 72.604 35.021h5.766q9.609-16.656 28.188-25.839 18.792-9.182 42.281-9.182 40.573 0 61.286 20.927 20.927 20.714 20.927 66.625v155.672h-65.344V440.806q0-25.839-8.755-38.651-8.542-13.026-27.12-13.026-23.917 0-35.875 17.083-11.745 17.083-11.745 54.24zm385.015 0l-8.755-30.536h-3.417q-10.463 16.656-29.682 25.839-19.219 8.969-43.776 8.969-42.068 0-63.422-22.422-21.354-22.635-21.354-64.917V341.509h65.13v139.443q0 25.839 9.182 38.865 9.182 12.812 29.255 12.812 27.333 0 39.505-18.151 12.172-18.365 12.172-60.646V341.509h65.13v238.739zm194.323 4.271q-42.068 0-66.198-32.672-23.917-32.672-23.917-90.542 0-58.724 24.344-91.396 24.557-32.885 67.479-32.885 45.057 0 68.76 35.021h2.135q-4.912-26.693-4.912-47.62v-76.448h65.344v332.271h-49.969l-12.599-30.964h-2.776q-22.208 35.234-67.693 35.234zm22.849-51.891q24.984 0 36.516-14.521 11.745-14.521 12.813-49.328v-7.047q0-38.437-11.958-55.094-11.745-16.656-38.437-16.656-21.781 0-33.953 18.578-11.958 18.365-11.958 53.599 0 35.234 12.172 52.958 12.172 17.51 34.807 17.51zm311.13-195.603q42.281 0 66.198 33.099 23.917 32.885 23.917 90.328 0 59.151-24.771 91.609-24.557 32.458-67.052 32.458-42.068 0-65.984-30.536h-4.484l-10.891 26.266h-49.755V247.978h65.13v77.302q0 14.734-2.562 47.193h2.563q22.849-35.448 67.693-35.448zm-20.927 52.104q-24.13 0-35.234 14.948-11.104 14.734-11.531 48.901v7.047q0 38.437 11.318 55.094 11.531 16.656 36.302 16.656 20.073 0 31.818-18.365 11.958-18.578 11.958-53.812 0-35.234-11.958-52.745-11.958-17.724-32.672-17.724zM436.131 50.001C222.877 50.001 50 222.878 50 436.132s172.877 386.131 386.131 386.131c213.162-.223 385.908-172.969 386.131-386.131 0-213.254-172.877-386.131-386.131-386.131zm0 16.861c203.849.223 369.045 165.421 369.268 369.27 0 203.942-165.327 369.268-369.268 369.268S66.861 640.074 66.861 436.132s165.328-369.27 369.27-369.27zm-.001 713.043a347.3 347.3 0 0 1-59.521-5.16 8.43 8.43 0 1 1 2.9-16.592 331.71 331.71 0 0 0 113.546 0 8.44 8.44 0 0 1 9.763 6.863 8.44 8.44 0 0 1-6.863 9.763 347.35 347.35 0 0 1-59.825 5.126zM268.627 735.12c-1.478-.001-2.93-.385-4.215-1.113a344.58 344.58 0 0 1-91.322-76.72 8.44 8.44 0 0 1 1.029-11.887 8.44 8.44 0 0 1 11.887 1.029c24.475 29.197 53.863 53.894 86.837 72.977a8.43 8.43 0 0 1-4.215 15.715zm335.276 0a8.43 8.43 0 0 1-4.249-15.749 326.9 326.9 0 0 0 86.938-73.011 8.43 8.43 0 1 1 12.916 10.825 344.55 344.55 0 0 1-91.39 76.653c-1.279.749-2.734 1.145-4.215 1.147zM121.054 559.76a8.43 8.43 0 0 1-7.925-5.598 342.46 342.46 0 0 1-20.74-117.525 8.4 8.4 0 0 1 2.447-5.959c1.575-1.582 3.717-2.471 5.95-2.471 4.649.017 8.412 3.782 8.431 8.431a325.7 325.7 0 0 0 19.728 111.759c1.584 4.367-.663 9.193-5.025 10.791a8.15 8.15 0 0 1-2.866.405zm630.287-.337c-.99.017-1.974-.156-2.9-.506-2.106-.753-3.824-2.318-4.768-4.346s-1.037-4.349-.257-6.446a326.14 326.14 0 0 0 19.627-111.995v-.742c0-4.656 3.775-8.431 8.431-8.431s8.431 3.775 8.431 8.431v.742c.05 40.103-6.936 79.904-20.639 117.593-1.226 3.319-4.387 5.524-7.925 5.531zM120.818 330.206a8.43 8.43 0 0 1-7.925-11.331 343.03 343.03 0 0 1 59.623-103.395 8.44 8.44 0 0 1 12.95 10.825c-24.522 29.203-43.722 62.488-56.722 98.337a8.43 8.43 0 0 1-7.925 5.564zm630.287-1.012a8.4 8.4 0 0 1-7.925-5.531c-13.106-35.785-32.397-68.99-56.992-98.101-1.946-2.319-2.506-5.5-1.471-8.345a8.47 8.47 0 0 1 6.492-5.446c2.982-.525 6.017.58 7.962 2.899a342.5 342.5 0 0 1 59.926 103.193c1.61 4.367-.624 9.213-4.991 10.825a8.89 8.89 0 0 1-3.001.506zM268.053 154.339a8.43 8.43 0 0 1-4.215-15.715 339.66 339.66 0 0 1 112.096-41.007 8.44 8.44 0 0 1 2.934 16.626 323.27 323.27 0 0 0-106.565 38.95c-1.29.75-2.756 1.146-4.249 1.147zm335.242-.506a8.23 8.23 0 0 1-4.182-1.147A324.62 324.62 0 0 0 492.38 114.04c-4.396-.981-7.244-5.244-6.469-9.68s4.901-7.48 9.369-6.912a340.2 340.2 0 0 1 112.231 40.468 8.43 8.43 0 0 1-4.215 15.749zM436.13 735.087c-165.109 0-298.956-133.847-298.956-298.956S271.021 137.174 436.13 137.174 735.086 271.021 735.086 436.13C734.9 601.162 601.162 734.9 436.13 735.086zm0-581.051c-155.797 0-282.095 126.298-282.095 282.095S280.333 718.225 436.13 718.225 718.224 591.927 718.224 436.13c-.167-155.727-126.367-281.927-282.095-282.095zm-15.917 366.402a9.46 9.46 0 0 1-2.158-.27 93.38 93.38 0 0 1-48.258-149.191v-.202a87.21 87.21 0 0 1 6.205-6.745l75.304-75.135c23.59-23.59 57.974-32.803 90.199-24.169a93.38 93.38 0 0 1 41.861 156.229l-75.102 75.102a80.53 80.53 0 0 1-7.082 6.407 8.43 8.43 0 0 1-11.769-11.938 76.65 76.65 0 0 0 14.568-68.121 8.43 8.43 0 0 1 2.158-8.127l35.274-35.274c12.797-13.381 12.561-34.533-.531-47.625s-34.244-13.328-47.625-.531l-75.102 75.102c-1.667 1.639-3.159 3.448-4.451 5.396-8.87 13.51-7.036 31.392 4.392 42.82s29.31 13.262 42.82 4.392a8.43 8.43 0 0 1 11.635 11.702 53.15 53.15 0 0 1-6.542 8.026l-39.827 39.793a8.47 8.47 0 0 1-5.969 2.361zm-37.5-138.602c-15.73 19.491-20.936 45.443-13.938 69.493a76.59 76.59 0 0 0 49.044 51.169l21.751-21.751a50.89 50.89 0 0 1-39.928-78.777 53.96 53.96 0 0 1 6.576-8.06l75.102-75c19.891-19.891 52.141-19.891 72.033 0s19.891 52.141 0 72.033l-31.936 31.902c1.35 6.375 2.028 12.874 2.023 19.391.01 5.451-.477 10.891-1.45 16.255l49.472-49.337c29.921-29.921 29.921-78.432 0-108.353s-78.432-29.921-108.353 0l-75.102 75.102a69.03 69.03 0 0 0-5.126 5.699z"/><use xlink:href="#B"/><use xlink:href="#C"/><use xlink:href="#B"/><use xlink:href="#C"/><path d="M354.924 610.682a93.35 93.35 0 0 1-66.03-159.376l75.102-75.102a80.53 80.53 0 0 1 7.082-6.407 8.43 8.43 0 0 1 11.769 11.938 76.79 76.79 0 0 0-14.568 68.121 8.43 8.43 0 0 1-2.158 8.127l-35.274 35.274c-12.797 13.381-12.561 34.533.531 47.625s34.244 13.328 47.625.531l75.102-74.933c1.667-1.639 3.159-3.448 4.451-5.396 3.62-5.572 5.553-12.072 5.564-18.716a34.13 34.13 0 0 0-52.811-28.462 8.43 8.43 0 0 1-11.635-11.702 53.15 53.15 0 0 1 6.542-8.026l40.029-39.996a8.43 8.43 0 0 1 8.127-2.192 93.38 93.38 0 0 1 48.258 149.191v.202c-1.949 2.355-4.02 4.607-6.205 6.745l-75.473 75.236c-17.497 17.531-41.262 27.362-66.03 27.316zm-4.62-196.943l-49.506 49.371c-29.241 30.002-28.933 77.937.691 107.561s77.559 29.932 107.561.691l75.102-75.102c1.813-1.803 3.524-3.706 5.126-5.699l.27-.337c15.73-19.491 20.936-45.443 13.938-69.493s-25.312-43.158-49.044-51.169l-21.684 21.853a50.89 50.89 0 0 1 39.928 78.777 53.96 53.96 0 0 1-6.576 8.06l-75.169 75.102c-19.891 19.891-52.141 19.891-72.033 0s-19.891-52.141 0-72.033l31.936-31.902c-2.47-11.748-2.653-23.862-.54-35.679z"/><use xlink:href="#D"/><use xlink:href="#E"/><use xlink:href="#D"/><use xlink:href="#E"/></g><defs ><path id="B" d="M442.335 480.915a50.89 50.89 0 0 1-42.694-78.845 8.33 8.33 0 0 1 2.428-2.428c15.654-10.273 35.682-11.133 52.159-2.239s26.75 26.107 26.753 44.832a51.26 51.26 0 0 1-8.363 27.923 8.33 8.33 0 0 1-2.428 2.428c-8.27 5.443-17.955 8.339-27.855 8.33zm-29.508-68.087c-7.798 13.374-5.607 30.323 5.336 41.274s27.89 13.154 41.27 5.366a34.6 34.6 0 0 0 4.688-17.233 34.13 34.13 0 0 0-51.293-29.407z"/><path id="C" d="M512.108 428.644a8.36 8.36 0 0 1-2.192-.27 8.43 8.43 0 0 1-5.935-5.969 76.72 76.72 0 0 0-54.126-54.126 8.43 8.43 0 0 1-3.608-14.096l35.072-35.274c19.891-19.891 52.141-19.891 72.033 0s19.891 52.141 0 72.033l-35.274 35.241c-1.576 1.593-3.729 2.481-5.969 2.462zm-44.65-71.999a93.92 93.92 0 0 1 48.157 48.157l25.798-25.798a34.06 34.06 0 0 0-14.97-57.58 34.06 34.06 0 0 0-33.186 9.424z"/><path id="D" d="M442.335 480.915a50.89 50.89 0 0 1-42.694-78.845 8.33 8.33 0 0 1 2.428-2.428 50.96 50.96 0 0 1 70.549 70.549 8.33 8.33 0 0 1-2.428 2.428c-8.274 5.431-17.959 8.315-27.855 8.296zm-29.508-68.087c-7.798 13.374-5.607 30.323 5.336 41.274s27.89 13.154 41.27 5.366c3.06-5.241 4.677-11.198 4.688-17.266a34.13 34.13 0 0 0-51.293-29.373z"/><path id="E" d="M354.924 568.224c-20.587-.007-39.145-12.408-47.027-31.426s-3.537-40.912 11.01-55.479l35.274-35.072c2.121-2.146 5.231-2.99 8.146-2.209s5.187 3.066 5.95 5.986a76.72 76.72 0 0 0 54.126 54.126 8.43 8.43 0 0 1 3.777 14.096l-35.241 35.106a50.82 50.82 0 0 1-36.016 14.872zm1.72-100.765l-25.798 25.798c-12.797 13.381-12.561 34.533.531 47.625s34.244 13.328 47.625.531l25.798-25.798a93.92 93.92 0 0 1-48.157-48.157z"/></defs></svg>