<?xml version="1.0" encoding="UTF-8" standalone="no"?>
<svg
   xmlns:dc="http://purl.org/dc/elements/1.1/"
   xmlns:cc="http://creativecommons.org/ns#"
   xmlns:rdf="http://www.w3.org/1999/02/22-rdf-syntax-ns#"
   xmlns:svg="http://www.w3.org/2000/svg"
   xmlns="http://www.w3.org/2000/svg"
   xmlns:sodipodi="http://sodipodi.sourceforge.net/DTD/sodipodi-0.dtd"
   xmlns:inkscape="http://www.inkscape.org/namespaces/inkscape"
   width="1910.8594"
   height="464.54303"
   version="1.1"
   id="svg28"
   sodipodi:docname="logo_dark.svg"
   inkscape:version="1.0.2 (394de47547, 2021-03-26)"
   inkscape:export-filename="/home/hextar/git/vchain/immudb-webconsole/src/static/images/immudb/text_dark.png"
   inkscape:export-xdpi="300"
   inkscape:export-ydpi="300">
  <metadata
     id="metadata32">
    <rdf:RDF>
      <cc:Work
         rdf:about="">
        <dc:format>image/svg+xml</dc:format>
        <dc:type
           rdf:resource="http://purl.org/dc/dcmitype/StillImage" />
        <dc:title></dc:title>
      </cc:Work>
    </rdf:RDF>
  </metadata>
  <sodipodi:namedview
     pagecolor="#ffffff"
     bordercolor="#666666"
     borderopacity="1"
     objecttolerance="10"
     gridtolerance="10"
     guidetolerance="10"
     inkscape:pageopacity="0"
     inkscape:pageshadow="2"
     inkscape:window-width="3368"
     inkscape:window-height="1376"
     id="namedview30"
     showgrid="false"
     fit-margin-top="64"
     fit-margin-left="64"
     fit-margin-right="64"
     fit-margin-bottom="64"
     lock-margins="true"
     inkscape:zoom="0.58455971"
     inkscape:cx="351.95011"
     inkscape:cy="252.15459"
     inkscape:window-x="1992"
     inkscape:window-y="27"
     inkscape:window-maximized="1"
     inkscape:current-layer="svg28" />
  <path
     id="path2"
     d="M 99.44727,64 C 75.81527,64 64.00001,74.60636 64,95.81836 c 0,21.354 11.81527,32.03125 35.44727,32.03125 11.816,0 20.6438,-2.77613 26.48047,-8.32813 5.97933,-5.69467 8.96875,-13.59578 8.96875,-23.70312 C 134.89649,74.60636 123.07927,64 99.44727,64 Z m 1391.00783,0 v 76.44922 c 0,13.95133 1.6374,29.82381 4.9121,47.61914 h -2.1348 c -15.802,-23.34733 -38.7217,-35.02149 -68.7597,-35.02149 -28.6146,0 -51.1071,10.96144 -67.4785,32.88477 -16.2293,21.78134 -24.3438,52.24714 -24.3438,91.39648 0,38.58 7.9713,68.76163 23.916,90.54297 16.0867,21.78133 38.154,32.67188 66.1993,32.67188 v -0.002 c 30.3233,0 52.886,-11.74503 67.6914,-35.23437 h 2.7773 l 12.5977,30.96484 h 49.9707 V 64 Z m 133.4668,0.002 v 332.26953 h 49.7559 l 10.8906,-26.26562 h 4.4844 c 15.944,20.35734 37.9371,30.53711 65.9824,30.53711 28.33,0 50.6813,-10.82033 67.0527,-32.45899 16.514,-21.63867 24.7715,-52.17537 24.7715,-91.60937 0,-38.29533 -7.9733,-68.4048 -23.918,-90.32813 -15.9443,-22.06549 -38.0089,-33.09715 -66.1953,-33.09766 -29.895,5.2e-4 -52.459,11.81578 -67.6914,35.44727 h -2.5625 c 1.708,-21.63934 2.5625,-37.3707 2.5625,-47.19336 V 64.00195 Z M 331.56641,153.04687 c -15.66,0 -29.54002,3.13249 -41.64062,9.39649 -12.1007,6.12134 -21.35377,14.663 -27.75977,25.625 h -3.63086 l -8.7539,-30.53516 H 200.0254 v 238.73828 h 65.13086 V 283.94922 c 0,-28.04467 3.77305,-48.18831 11.31835,-60.43164 7.5453,-12.24334 19.64479,-18.36524 36.30079,-18.36524 12.3853,0 21.42639,4.34139 27.12109,13.02539 5.8366,8.54133 8.75391,21.42635 8.75391,38.65235 v 139.4414 h 65.13088 V 276.47461 c 0,-24.77133 3.9161,-42.84962 11.7461,-54.23829 7.972,-11.38866 19.9303,-17.08398 35.875,-17.08398 12.3853,0 21.4244,4.34139 27.1191,13.02539 5.8367,8.54133 8.7559,21.42635 8.7559,38.65235 v 139.4414 h 65.3437 V 240.59961 c 0,-30.60733 -6.9764,-52.81566 -20.9277,-66.625 -13.8087,-13.95133 -34.2365,-20.92774 -61.2852,-20.92774 -15.6593,0 -29.7532,3.0603 -42.2812,9.18164 -12.386,6.122 -21.7815,14.73585 -28.1875,25.83985 h -5.7656 c -12.67,-23.34733 -36.8729,-35.02149 -72.60552,-35.02149 z m 429.64647,0 c -15.6594,0 -29.5399,3.13249 -41.6406,9.39649 -12.1005,6.12134 -21.3538,14.663 -27.7598,25.625 h -3.6308 l -8.7539,-30.53516 h -49.7559 v 238.73828 h 65.1309 V 283.94922 c 0,-28.04467 3.7711,-48.18831 11.3164,-60.43164 7.5454,-12.24334 19.6467,-18.36524 36.3027,-18.36524 12.3853,0 21.4264,4.34139 27.1211,13.02539 5.8366,8.54133 8.7539,21.42635 8.7539,38.65235 v 139.4414 h 65.1309 V 276.47461 c 0,-24.77133 3.9141,-42.84962 11.7441,-54.23829 7.972,-11.38866 19.9303,-17.08398 35.875,-17.08398 12.3853,0 21.4245,4.34139 27.1191,13.02539 5.8367,8.54133 8.7559,21.42635 8.7559,38.65235 v 139.4414 h 65.3438 V 240.59961 c 0,-30.60733 -6.9745,-52.81566 -20.9258,-66.625 -13.8087,-13.95133 -34.2385,-20.92774 -61.2871,-20.92774 -15.6594,0 -29.7533,3.0603 -42.2813,9.18164 -12.386,6.122 -21.7815,14.73585 -28.1875,25.83985 h -5.7656 c -12.67,-23.34733 -36.8709,-35.02149 -72.6035,-35.02149 z M 66.7754,157.5332 v 238.73828 h 65.13086 V 157.5332 Z m 991.2598,0 v 155.67188 c 0,28.18799 7.1194,49.82601 21.3555,64.91601 14.236,14.948 35.3765,22.42188 63.4218,22.42188 16.3713,0 30.9627,-2.98942 43.7754,-8.96875 12.8126,-6.122 22.7064,-14.7339 29.6817,-25.8379 h 3.4179 l 8.7539,30.53516 h 49.9688 V 157.5332 h -65.1309 v 112.32227 c 0,28.18733 -4.0572,48.40314 -12.1719,60.64648 -8.1147,12.10066 -21.2819,18.15039 -39.5039,18.15039 -13.382,0 -23.1344,-4.27117 -29.2558,-12.8125 -6.1213,-8.684 -9.1817,-21.63923 -9.1817,-38.86523 V 157.5332 Z m 677.7676,47.61914 v 0 c 13.8094,0 24.6999,5.90861 32.6719,17.72461 7.972,11.674 11.957,29.2548 11.957,52.74414 10e-5,23.48933 -3.985,41.42716 -11.957,53.8125 -7.83,12.24333 -18.4364,18.36523 -31.8184,18.36523 -16.514,0 -28.6153,-5.55224 -36.3027,-16.65624 -7.5453,-11.10467 -11.3164,-29.46909 -11.3164,-55.09376 v -7.04687 c 0.2847,-22.778 4.1285,-39.07967 11.5312,-48.90234 7.4026,-9.96533 19.1458,-14.94727 35.2325,-14.94727 z m -291.2676,0.85352 v 0 c 17.7947,0 30.6056,5.55225 38.4356,16.65625 7.972,11.10467 11.959,29.46909 11.959,55.09375 v 7.04687 c -0.712,23.20466 -4.9825,39.64747 -12.8125,49.32813 -7.688,9.68067 -19.8616,14.52148 -36.5176,14.52148 v -0.002 c -15.09,0 -26.6921,-5.83644 -34.8067,-17.50977 -8.1147,-11.816 -12.1718,-29.46964 -12.1718,-52.95898 0,-23.48933 3.987,-41.35433 11.959,-53.59766 8.1147,-12.38534 19.4324,-18.57812 33.9531,-18.57812 z"
     style="fill:#ffffff" />
  <defs
     id="defs26">
    <path
       id="B"
       d="m 442.335,480.915 a 50.89,50.89 0 0 1 -42.694,-78.845 8.33,8.33 0 0 1 2.428,-2.428 c 15.654,-10.273 35.682,-11.133 52.159,-2.239 16.477,8.894 26.75,26.107 26.753,44.832 a 51.26,51.26 0 0 1 -8.363,27.923 8.33,8.33 0 0 1 -2.428,2.428 c -8.27,5.443 -17.955,8.339 -27.855,8.33 z m -29.508,-68.087 c -7.798,13.374 -5.607,30.323 5.336,41.274 10.943,10.951 27.89,13.154 41.27,5.366 a 34.6,34.6 0 0 0 4.688,-17.233 34.13,34.13 0 0 0 -51.293,-29.407 z" />
    <path
       id="C"
       d="m 512.108,428.644 a 8.36,8.36 0 0 1 -2.192,-0.27 8.43,8.43 0 0 1 -5.935,-5.969 76.72,76.72 0 0 0 -54.126,-54.126 8.43,8.43 0 0 1 -3.608,-14.096 l 35.072,-35.274 c 19.891,-19.891 52.141,-19.891 72.033,0 19.892,19.891 19.891,52.141 0,72.033 l -35.274,35.241 c -1.576,1.593 -3.729,2.481 -5.969,2.462 z m -44.65,-71.999 a 93.92,93.92 0 0 1 48.157,48.157 l 25.798,-25.798 a 34.06,34.06 0 0 0 -14.97,-57.58 34.06,34.06 0 0 0 -33.186,9.424 z" />
    <path
       id="D"
       d="m 442.335,480.915 a 50.89,50.89 0 0 1 -42.694,-78.845 8.33,8.33 0 0 1 2.428,-2.428 50.96,50.96 0 0 1 70.549,70.549 8.33,8.33 0 0 1 -2.428,2.428 c -8.274,5.431 -17.959,8.315 -27.855,8.296 z m -29.508,-68.087 c -7.798,13.374 -5.607,30.323 5.336,41.274 10.943,10.951 27.89,13.154 41.27,5.366 3.06,-5.241 4.677,-11.198 4.688,-17.266 a 34.13,34.13 0 0 0 -51.293,-29.373 z" />
    <path
       id="E"
       d="m 354.924,568.224 c -20.587,-0.007 -39.145,-12.408 -47.027,-31.426 -7.882,-19.018 -3.537,-40.912 11.01,-55.479 l 35.274,-35.072 c 2.121,-2.146 5.231,-2.99 8.146,-2.209 2.915,0.781 5.187,3.066 5.95,5.986 a 76.72,76.72 0 0 0 54.126,54.126 8.43,8.43 0 0 1 3.777,14.096 l -35.241,35.106 a 50.82,50.82 0 0 1 -36.016,14.872 z m 1.72,-100.765 -25.798,25.798 c -12.797,13.381 -12.561,34.533 0.531,47.625 13.092,13.092 34.244,13.328 47.625,0.531 L 404.8,515.615 a 93.92,93.92 0 0 1 -48.157,-48.157 z" />
  </defs>
</svg>
