<?xml version="1.0" encoding="UTF-8" standalone="no"?>
<svg
   width="1910.859"
   height="464.543"
   version="1.1"
   id="svg4"
   sodipodi:docname="text_light.svg"
   inkscape:version="1.1 (ce6663b3b7, 2021-05-25)"
   xmlns:inkscape="http://www.inkscape.org/namespaces/inkscape"
   xmlns:sodipodi="http://sodipodi.sourceforge.net/DTD/sodipodi-0.dtd"
   xmlns="http://www.w3.org/2000/svg"
   xmlns:svg="http://www.w3.org/2000/svg">
  <defs
     id="defs8" />
  <sodipodi:namedview
     id="namedview6"
     pagecolor="#ffffff"
     bordercolor="#666666"
     borderopacity="1.0"
     inkscape:pageshadow="2"
     inkscape:pageopacity="0.0"
     inkscape:pagecheckerboard="0"
     showgrid="false"
     inkscape:zoom="0.69131212"
     inkscape:cx="954.70624"
     inkscape:cy="232.1672"
     inkscape:window-width="3368"
     inkscape:window-height="1376"
     inkscape:window-x="1992"
     inkscape:window-y="27"
     inkscape:window-maximized="1"
     inkscape:current-layer="svg4" />
  <path
     d="M99.447 64C75.815 64 64 74.606 64 95.818c0 21.354 11.815 32.031 35.447 32.031 11.816 0 20.644-2.776 26.48-8.328 5.979-5.695 8.969-13.596 8.969-23.703C134.896 74.606 123.079 64 99.447 64zm1391.008 0v76.449c0 13.951 1.637 29.824 4.912 47.619h-2.135c-15.802-23.347-38.722-35.021-68.76-35.021-28.615 0-51.107 10.961-67.478 32.885-16.229 21.781-24.344 52.247-24.344 91.396 0 38.58 7.971 68.762 23.916 90.543 16.087 21.781 38.154 32.672 66.199 32.672v-.002c30.323 0 52.886-11.745 67.691-35.234h2.777l12.598 30.965h49.971V64zm133.467.002v332.27h49.756l10.891-26.266h4.484c15.944 20.357 37.937 30.537 65.982 30.537 28.33 0 50.681-10.82 67.053-32.459 16.514-21.639 24.772-52.175 24.772-91.609 0-38.295-7.973-68.405-23.918-90.328-15.944-22.065-38.009-33.097-66.195-33.098-29.895.001-52.459 11.816-67.691 35.447h-2.562c1.708-21.639 2.563-37.371 2.563-47.193V64.002zM331.566 153.047c-15.66 0-29.54 3.132-41.641 9.396-12.101 6.121-21.354 14.663-27.76 25.625h-3.631l-8.754-30.535h-49.756v238.738h65.131V283.949c0-28.045 3.773-48.188 11.318-60.432s19.645-18.365 36.301-18.365c12.385 0 21.426 4.341 27.121 13.025 5.837 8.541 8.754 21.426 8.754 38.652v139.441h65.131V276.475c0-24.771 3.916-42.85 11.746-54.238 7.972-11.389 19.93-17.084 35.875-17.084 12.385 0 21.424 4.341 27.119 13.025 5.837 8.541 8.756 21.426 8.756 38.652v139.441h65.344V240.6c0-30.607-6.976-52.816-20.928-66.625-13.809-13.951-34.236-20.928-61.285-20.928-15.659 0-29.753 3.06-42.281 9.182-12.386 6.122-21.781 14.736-28.187 25.84h-5.766c-12.67-23.347-36.873-35.021-72.606-35.021zm429.646 0c-15.659 0-29.54 3.132-41.641 9.396-12.101 6.121-21.354 14.663-27.76 25.625h-3.631l-8.754-30.535h-49.756v238.738h65.131V283.949c0-28.045 3.771-48.188 11.316-60.432s19.647-18.365 36.303-18.365c12.385 0 21.426 4.341 27.121 13.025 5.837 8.541 8.754 21.426 8.754 38.652v139.441h65.131V276.475c0-24.771 3.914-42.85 11.744-54.238 7.972-11.389 19.93-17.084 35.875-17.084 12.385 0 21.424 4.341 27.119 13.025 5.837 8.541 8.756 21.426 8.756 38.652v139.441h65.344V240.6c0-30.607-6.975-52.816-20.926-66.625-13.809-13.951-34.239-20.928-61.287-20.928-15.659 0-29.753 3.06-42.281 9.182-12.386 6.122-21.782 14.736-28.187 25.84h-5.766c-12.67-23.347-36.871-35.021-72.604-35.021zm-694.437 4.486v238.738h65.131V157.533zm991.26 0v155.672c0 28.188 7.119 49.826 21.355 64.916 14.236 14.948 35.377 22.422 63.422 22.422 16.371 0 30.963-2.989 43.775-8.969 12.813-6.122 22.706-14.734 29.682-25.838h3.418l8.754 30.535h49.969V157.533h-65.131v112.322c0 28.187-4.057 48.403-12.172 60.646-8.115 12.101-21.282 18.15-39.504 18.15-13.382 0-23.134-4.271-29.256-12.812-6.121-8.684-9.182-21.639-9.182-38.865V157.533zm677.768 47.619h0c13.809 0 24.7 5.909 32.672 17.725 7.972 11.674 11.957 29.255 11.957 52.744s-3.985 41.427-11.957 53.813c-7.83 12.243-18.436 18.365-31.818 18.365-16.514 0-28.615-5.552-36.303-16.656-7.545-11.105-11.316-29.469-11.316-55.094v-7.047c.285-22.778 4.129-39.08 11.531-48.902 7.403-9.965 19.146-14.947 35.233-14.947zm-291.268.854h0c17.795 0 30.606 5.552 38.436 16.656 7.972 11.105 11.959 29.469 11.959 55.094v7.047c-.712 23.205-4.983 39.647-12.812 49.328-7.688 9.681-19.862 14.521-36.518 14.521v-.002c-15.09 0-26.692-5.836-34.807-17.51-8.115-11.816-12.172-29.47-12.172-52.959s3.987-41.354 11.959-53.598c8.115-12.385 19.432-18.578 33.953-18.578z"
     id="path2"
     style="fill:#244583;fill-opacity:1" />
</svg>
